G04 --- HEADER BEGIN --- *
%TF.GenerationSoftware,LibrePCB,LibrePCB,0.1.5*%
%TF.CreationDate,2020-12-27T00:53:52*%
%TF.ProjectId,bob_ddr_sdram_4m16b - default,91b37e6c-9424-4871-8535-6cfacb37efd9,v1*%
%TF.Part,Single*%
%FSLAX66Y66*%
%MOMM*%
G01*
G74*
G04 --- HEADER END --- *
G04 --- APERTURE LIST BEGIN --- *
%ADD10C,0.25*%
%ADD11C,0.2*%
%ADD12O,2.39X1.787*%
%ADD13R,2.39X1.787*%
%ADD14R,1.7X0.55*%
G04 --- APERTURE LIST END --- *
G04 --- BOARD BEGIN --- *
D10*
X25275000Y50655000D02*
X25275000Y48530000D01*
X25545000Y48260000D01*
X25275000Y47990000D01*
X25275000Y45990000D01*
X25545000Y45720000D01*
X25275000Y45450000D01*
X25275000Y43450000D01*
X25545000Y43180000D01*
X25275000Y42910000D01*
X25275000Y40910000D01*
X25545000Y40640000D01*
X25275000Y40370000D01*
X25275000Y38370000D01*
X25545000Y38100000D01*
X25275000Y37830000D01*
X25275000Y35830000D01*
X25545000Y35560000D01*
X25275000Y35290000D01*
X25275000Y33290000D01*
X25545000Y33020000D01*
X25275000Y32750000D01*
X25275000Y30750000D01*
X25545000Y30480000D01*
X25275000Y30210000D01*
X25275000Y28210000D01*
X25545000Y27940000D01*
X25275000Y27670000D01*
X25275000Y25670000D01*
X25545000Y25400000D01*
X25275000Y25130000D01*
X25275000Y23130000D01*
X25545000Y22860000D01*
X25275000Y22590000D01*
X25275000Y20465000D01*
X25545000Y20195000D01*
X27795000Y20195000D01*
X28065000Y20465000D01*
X28065000Y22590000D01*
X27795000Y22860000D01*
X28065000Y23130000D01*
X28065000Y25130000D01*
X27795000Y25400000D01*
X28065000Y25670000D01*
X28065000Y27670000D01*
X27795000Y27940000D01*
X28065000Y28210000D01*
X28065000Y30210000D01*
X27795000Y30480000D01*
X28065000Y30750000D01*
X28065000Y32750000D01*
X27795000Y33020000D01*
X28065000Y33290000D01*
X28065000Y35290000D01*
X27795000Y35560000D01*
X28065000Y35830000D01*
X28065000Y37830000D01*
X27795000Y38100000D01*
X28065000Y38370000D01*
X28065000Y40370000D01*
X27795000Y40640000D01*
X28065000Y40910000D01*
X28065000Y42910000D01*
X27795000Y43180000D01*
X28065000Y43450000D01*
X28065000Y45450000D01*
X27795000Y45720000D01*
X28065000Y45990000D01*
X28065000Y47990000D01*
X27795000Y48260000D01*
X28065000Y48530000D01*
X28065000Y50655000D01*
X27795000Y50925000D01*
X25545000Y50925000D01*
X25275000Y50655000D01*
X25275000Y83675000D02*
X25275000Y81550000D01*
X25545000Y81280000D01*
X25275000Y81010000D01*
X25275000Y79010000D01*
X25545000Y78740000D01*
X25275000Y78470000D01*
X25275000Y76470000D01*
X25545000Y76200000D01*
X25275000Y75930000D01*
X25275000Y73930000D01*
X25545000Y73660000D01*
X25275000Y73390000D01*
X25275000Y71390000D01*
X25545000Y71120000D01*
X25275000Y70850000D01*
X25275000Y68850000D01*
X25545000Y68580000D01*
X25275000Y68310000D01*
X25275000Y66310000D01*
X25545000Y66040000D01*
X25275000Y65770000D01*
X25275000Y63770000D01*
X25545000Y63500000D01*
X25275000Y63230000D01*
X25275000Y61230000D01*
X25545000Y60960000D01*
X25275000Y60690000D01*
X25275000Y58690000D01*
X25545000Y58420000D01*
X25275000Y58150000D01*
X25275000Y56150000D01*
X25545000Y55880000D01*
X25275000Y55610000D01*
X25275000Y53610000D01*
X25545000Y53340000D01*
X25275000Y53070000D01*
X25275000Y50945000D01*
X25545000Y50675000D01*
X27795000Y50675000D01*
X28065000Y50945000D01*
X28065000Y53070000D01*
X27795000Y53340000D01*
X28065000Y53610000D01*
X28065000Y55610000D01*
X27795000Y55880000D01*
X28065000Y56150000D01*
X28065000Y58150000D01*
X27795000Y58420000D01*
X28065000Y58690000D01*
X28065000Y60690000D01*
X27795000Y60960000D01*
X28065000Y61230000D01*
X28065000Y63230000D01*
X27795000Y63500000D01*
X28065000Y63770000D01*
X28065000Y65770000D01*
X27795000Y66040000D01*
X28065000Y66310000D01*
X28065000Y68310000D01*
X27795000Y68580000D01*
X28065000Y68850000D01*
X28065000Y70850000D01*
X27795000Y71120000D01*
X28065000Y71390000D01*
X28065000Y73390000D01*
X27795000Y73660000D01*
X28065000Y73930000D01*
X28065000Y75930000D01*
X27795000Y76200000D01*
X28065000Y76470000D01*
X28065000Y78470000D01*
X27795000Y78740000D01*
X28065000Y79010000D01*
X28065000Y81010000D01*
X27795000Y81280000D01*
X28065000Y81550000D01*
X28065000Y83675000D01*
X27795000Y83945000D01*
X25545000Y83945000D01*
X25275000Y83675000D01*
X20275000Y53145000D02*
X9015000Y53145000D01*
X18925000Y30675000D02*
X9015000Y30675000D01*
X2665000Y20465000D02*
X2665000Y22590000D01*
X2395000Y22860000D01*
X2665000Y23130000D01*
X2665000Y25130000D01*
X2395000Y25400000D01*
X2665000Y25670000D01*
X2665000Y27670000D01*
X2395000Y27940000D01*
X2665000Y28210000D01*
X2665000Y30210000D01*
X2395000Y30480000D01*
X2665000Y30750000D01*
X2665000Y32750000D01*
X2395000Y33020000D01*
X2665000Y33290000D01*
X2665000Y35290000D01*
X2395000Y35560000D01*
X2665000Y35830000D01*
X2665000Y37830000D01*
X2395000Y38100000D01*
X2665000Y38370000D01*
X2665000Y40370000D01*
X2395000Y40640000D01*
X2665000Y40910000D01*
X2665000Y42910000D01*
X2395000Y43180000D01*
X2665000Y43450000D01*
X2665000Y45450000D01*
X2395000Y45720000D01*
X2665000Y45990000D01*
X2665000Y47990000D01*
X2395000Y48260000D01*
X2665000Y48530000D01*
X2665000Y50655000D01*
X2395000Y50925000D01*
X145000Y50925000D01*
X-125000Y50655000D01*
X-125000Y48530000D01*
X145000Y48260000D01*
X-125000Y47990000D01*
X-125000Y45990000D01*
X145000Y45720000D01*
X-125000Y45450000D01*
X-125000Y43450000D01*
X145000Y43180000D01*
X-125000Y42910000D01*
X-125000Y40910000D01*
X145000Y40640000D01*
X-125000Y40370000D01*
X-125000Y38370000D01*
X145000Y38100000D01*
X-125000Y37830000D01*
X-125000Y35830000D01*
X145000Y35560000D01*
X-125000Y35290000D01*
X-125000Y33290000D01*
X145000Y33020000D01*
X-125000Y32750000D01*
X-125000Y30750000D01*
X145000Y30480000D01*
X-125000Y30210000D01*
X-125000Y28210000D01*
X145000Y27940000D01*
X-125000Y27670000D01*
X-125000Y25670000D01*
X145000Y25400000D01*
X-125000Y25130000D01*
X-125000Y23130000D01*
X145000Y22860000D01*
X-125000Y22590000D01*
X-125000Y20465000D01*
X145000Y20195000D01*
X2395000Y20195000D01*
X2665000Y20465000D01*
X25275000Y20175000D02*
X25275000Y18050000D01*
X25545000Y17780000D01*
X25275000Y17510000D01*
X25275000Y15510000D01*
X25545000Y15240000D01*
X25275000Y14970000D01*
X25275000Y12970000D01*
X25545000Y12700000D01*
X25275000Y12430000D01*
X25275000Y10430000D01*
X25545000Y10160000D01*
X25275000Y9890000D01*
X25275000Y7890000D01*
X25545000Y7620000D01*
X25275000Y7350000D01*
X25275000Y5350000D01*
X25545000Y5080000D01*
X25275000Y4810000D01*
X25275000Y2810000D01*
X25545000Y2540000D01*
X25275000Y2270000D01*
X25275000Y145000D01*
X25545000Y-125000D01*
X27795000Y-125000D01*
X28065000Y145000D01*
X28065000Y2270000D01*
X27795000Y2540000D01*
X28065000Y2810000D01*
X28065000Y4810000D01*
X27795000Y5080000D01*
X28065000Y5350000D01*
X28065000Y7350000D01*
X27795000Y7620000D01*
X28065000Y7890000D01*
X28065000Y9890000D01*
X27795000Y10160000D01*
X28065000Y10430000D01*
X28065000Y12430000D01*
X27795000Y12700000D01*
X28065000Y12970000D01*
X28065000Y14970000D01*
X27795000Y15240000D01*
X28065000Y15510000D01*
X28065000Y17510000D01*
X27795000Y17780000D01*
X28065000Y18050000D01*
X28065000Y20175000D01*
X27795000Y20445000D01*
X25545000Y20445000D01*
X25275000Y20175000D01*
X2665000Y145000D02*
X2665000Y2270000D01*
X2395000Y2540000D01*
X2665000Y2810000D01*
X2665000Y4810000D01*
X2395000Y5080000D01*
X2665000Y5350000D01*
X2665000Y7350000D01*
X2395000Y7620000D01*
X2665000Y7890000D01*
X2665000Y9890000D01*
X2395000Y10160000D01*
X2665000Y10430000D01*
X2665000Y12430000D01*
X2395000Y12700000D01*
X2665000Y12970000D01*
X2665000Y14970000D01*
X2395000Y15240000D01*
X2665000Y15510000D01*
X2665000Y17510000D01*
X2395000Y17780000D01*
X2665000Y18050000D01*
X2665000Y20175000D01*
X2395000Y20445000D01*
X145000Y20445000D01*
X-125000Y20175000D01*
X-125000Y18050000D01*
X145000Y17780000D01*
X-125000Y17510000D01*
X-125000Y15510000D01*
X145000Y15240000D01*
X-125000Y14970000D01*
X-125000Y12970000D01*
X145000Y12700000D01*
X-125000Y12430000D01*
X-125000Y10430000D01*
X145000Y10160000D01*
X-125000Y9890000D01*
X-125000Y7890000D01*
X145000Y7620000D01*
X-125000Y7350000D01*
X-125000Y5350000D01*
X145000Y5080000D01*
X-125000Y4810000D01*
X-125000Y2810000D01*
X145000Y2540000D01*
X-125000Y2270000D01*
X-125000Y145000D01*
X145000Y-125000D01*
X2395000Y-125000D01*
X2665000Y145000D01*
X2665000Y50945000D02*
X2665000Y53070000D01*
X2395000Y53340000D01*
X2665000Y53610000D01*
X2665000Y55610000D01*
X2395000Y55880000D01*
X2665000Y56150000D01*
X2665000Y58150000D01*
X2395000Y58420000D01*
X2665000Y58690000D01*
X2665000Y60690000D01*
X2395000Y60960000D01*
X2665000Y61230000D01*
X2665000Y63230000D01*
X2395000Y63500000D01*
X2665000Y63770000D01*
X2665000Y65770000D01*
X2395000Y66040000D01*
X2665000Y66310000D01*
X2665000Y68310000D01*
X2395000Y68580000D01*
X2665000Y68850000D01*
X2665000Y70850000D01*
X2395000Y71120000D01*
X2665000Y71390000D01*
X2665000Y73390000D01*
X2395000Y73660000D01*
X2665000Y73930000D01*
X2665000Y75930000D01*
X2395000Y76200000D01*
X2665000Y76470000D01*
X2665000Y78470000D01*
X2395000Y78740000D01*
X2665000Y79010000D01*
X2665000Y81010000D01*
X2395000Y81280000D01*
X2665000Y81550000D01*
X2665000Y83675000D01*
X2395000Y83945000D01*
X145000Y83945000D01*
X-125000Y83675000D01*
X-125000Y81550000D01*
X145000Y81280000D01*
X-125000Y81010000D01*
X-125000Y79010000D01*
X145000Y78740000D01*
X-125000Y78470000D01*
X-125000Y76470000D01*
X145000Y76200000D01*
X-125000Y75930000D01*
X-125000Y73930000D01*
X145000Y73660000D01*
X-125000Y73390000D01*
X-125000Y71390000D01*
X145000Y71120000D01*
X-125000Y70850000D01*
X-125000Y68850000D01*
X145000Y68580000D01*
X-125000Y68310000D01*
X-125000Y66310000D01*
X145000Y66040000D01*
X-125000Y65770000D01*
X-125000Y63770000D01*
X145000Y63500000D01*
X-125000Y63230000D01*
X-125000Y61230000D01*
X145000Y60960000D01*
X-125000Y60690000D01*
X-125000Y58690000D01*
X145000Y58420000D01*
X-125000Y58150000D01*
X-125000Y56150000D01*
X145000Y55880000D01*
X-125000Y55610000D01*
X-125000Y53610000D01*
X145000Y53340000D01*
X-125000Y53070000D01*
X-125000Y50945000D01*
X145000Y50675000D01*
X2395000Y50675000D01*
X2665000Y50945000D01*
D11*
X23732490Y48532194D02*
X24446934Y48532194D01*
X24589157Y48579972D01*
X24684712Y48675527D01*
X24732490Y48817749D01*
X24732490Y48913305D01*
X23732490Y47608861D02*
X23732490Y48084416D01*
X24209157Y48132194D01*
X24161379Y48084416D01*
X24113601Y47988861D01*
X24113601Y47751083D01*
X24161379Y47655527D01*
X24209157Y47608861D01*
X24303601Y47561083D01*
X24542490Y47561083D01*
X24636934Y47608861D01*
X24684712Y47655527D01*
X24732490Y47751083D01*
X24732490Y47988861D01*
X24684712Y48084416D01*
X24636934Y48132194D01*
X23765000Y81575000D02*
X24479444Y81575000D01*
X24621667Y81622778D01*
X24717222Y81718333D01*
X24765000Y81860555D01*
X24765000Y81956111D01*
X24765000Y80603889D02*
X24765000Y81175000D01*
X24765000Y80889444D02*
X23765000Y80889444D01*
X23908333Y80985000D01*
X24002778Y81079444D01*
X24050556Y81175000D01*
X14741111Y55290000D02*
X14741111Y54480000D01*
X14693333Y54385556D01*
X14645555Y54337778D01*
X14551111Y54290000D01*
X14360000Y54290000D01*
X14264444Y54337778D01*
X14217778Y54385556D01*
X14170000Y54480000D01*
X14170000Y55290000D01*
X13198889Y54290000D02*
X13770000Y54290000D01*
X13484444Y54290000D02*
X13484444Y55290000D01*
X13580000Y55146667D01*
X13674444Y55052222D01*
X13770000Y55004444D01*
X3175000Y48555000D02*
X3889444Y48555000D01*
X4031667Y48602778D01*
X4127222Y48698333D01*
X4175000Y48840555D01*
X4175000Y48936111D01*
X3175000Y47678333D02*
X3175000Y47869444D01*
X3222778Y47965000D01*
X3270556Y48011667D01*
X3412778Y48107222D01*
X3603889Y48155000D01*
X3985000Y48155000D01*
X4079444Y48107222D01*
X4127222Y48059444D01*
X4175000Y47965000D01*
X4175000Y47773889D01*
X4127222Y47678333D01*
X4079444Y47631667D01*
X3985000Y47583889D01*
X3746111Y47583889D01*
X3651667Y47631667D01*
X3603889Y47678333D01*
X3556111Y47773889D01*
X3556111Y47965000D01*
X3603889Y48059444D01*
X3651667Y48107222D01*
X3746111Y48155000D01*
X23765000Y18098889D02*
X24479444Y18098889D01*
X24621667Y18146667D01*
X24717222Y18242222D01*
X24765000Y18384444D01*
X24765000Y18480000D01*
X23765000Y17698889D02*
X23765000Y17080000D01*
X24146111Y17413333D01*
X24146111Y17270000D01*
X24193889Y17175556D01*
X24241667Y17127778D01*
X24336111Y17080000D01*
X24575000Y17080000D01*
X24669444Y17127778D01*
X24717222Y17175556D01*
X24765000Y17270000D01*
X24765000Y17555556D01*
X24717222Y17651111D01*
X24669444Y17698889D01*
X3235219Y18040454D02*
X3949663Y18040454D01*
X4091886Y18088232D01*
X4187441Y18183787D01*
X4235219Y18326009D01*
X4235219Y18421565D01*
X3568552Y17163787D02*
X4235219Y17163787D01*
X3187441Y17402676D02*
X3901886Y17640454D01*
X3901886Y17021565D01*
X3175000Y81598889D02*
X3889444Y81598889D01*
X4031667Y81646667D01*
X4127222Y81742222D01*
X4175000Y81884444D01*
X4175000Y81980000D01*
X3270556Y81151111D02*
X3222778Y81103333D01*
X3175000Y81008889D01*
X3175000Y80770000D01*
X3222778Y80675556D01*
X3270556Y80627778D01*
X3365000Y80580000D01*
X3460556Y80580000D01*
X3603889Y80627778D01*
X4175000Y81198889D01*
X4175000Y80580000D01*
%LPC*%
D12*
X26670000Y34290000D03*
X26670000Y44450000D03*
D13*
X26670000Y49530000D03*
D12*
X26670000Y39370000D03*
X26670000Y31750000D03*
X26670000Y21590000D03*
X26670000Y26670000D03*
X26670000Y41910000D03*
X26670000Y46990000D03*
X26670000Y29210000D03*
X26670000Y24130000D03*
X26670000Y36830000D03*
X26670000Y57150000D03*
X26670000Y62230000D03*
D13*
X26670000Y82550000D03*
D12*
X26670000Y77470000D03*
X26670000Y74930000D03*
X26670000Y54610000D03*
X26670000Y52070000D03*
X26670000Y72390000D03*
X26670000Y59690000D03*
X26670000Y69850000D03*
X26670000Y80010000D03*
X26670000Y67310000D03*
X26670000Y64770000D03*
D14*
X19650000Y48410000D03*
X8290000Y45160000D03*
X8290000Y37360000D03*
X19650000Y34110000D03*
X19650000Y45810000D03*
X19650000Y43860000D03*
X19650000Y31510000D03*
X8290000Y34760000D03*
X8290000Y36710000D03*
X19650000Y45160000D03*
X19650000Y41910000D03*
X8290000Y44510000D03*
X8290000Y45810000D03*
X8290000Y32810000D03*
X19650000Y41260000D03*
X19650000Y44510000D03*
X8290000Y32160000D03*
X19650000Y33460000D03*
X19650000Y36710000D03*
X8290000Y51010000D03*
X19650000Y47110000D03*
X8290000Y49060000D03*
X8290000Y39960000D03*
X8290000Y31510000D03*
X19650000Y47760000D03*
X19650000Y36060000D03*
X19650000Y39310000D03*
X19650000Y40610000D03*
X8290000Y47110000D03*
X8290000Y39310000D03*
X8290000Y40610000D03*
X8290000Y42560000D03*
X19650000Y46460000D03*
X19650000Y38010000D03*
X19650000Y37360000D03*
X19650000Y49710000D03*
X8290000Y34110000D03*
X8290000Y49710000D03*
X8290000Y41260000D03*
X19650000Y50360000D03*
X19650000Y39960000D03*
X19650000Y49060000D03*
X8290000Y50360000D03*
X8290000Y33460000D03*
X19650000Y51010000D03*
X8290000Y46460000D03*
X19650000Y51660000D03*
X8290000Y35410000D03*
X8290000Y43210000D03*
X19650000Y32810000D03*
X8290000Y36060000D03*
X8290000Y51660000D03*
X8290000Y41910000D03*
X8290000Y48410000D03*
X8290000Y43860000D03*
X19650000Y43210000D03*
X8290000Y38010000D03*
X8290000Y38660000D03*
X19650000Y52310000D03*
X19650000Y34760000D03*
X8290000Y52310000D03*
X19650000Y38660000D03*
X8290000Y47760000D03*
X19650000Y42560000D03*
X19650000Y32160000D03*
X19650000Y35410000D03*
D12*
X1270000Y36830000D03*
X1270000Y26670000D03*
D13*
X1270000Y21590000D03*
D12*
X1270000Y31750000D03*
X1270000Y39370000D03*
X1270000Y49530000D03*
X1270000Y44450000D03*
X1270000Y29210000D03*
X1270000Y24130000D03*
X1270000Y41910000D03*
X1270000Y46990000D03*
X1270000Y34290000D03*
X26670000Y1270000D03*
X26670000Y8890000D03*
X26670000Y6350000D03*
D13*
X26670000Y19050000D03*
D12*
X26670000Y16510000D03*
X26670000Y3810000D03*
X26670000Y13970000D03*
X26670000Y11430000D03*
X1270000Y19050000D03*
X1270000Y11430000D03*
X1270000Y13970000D03*
D13*
X1270000Y1270000D03*
D12*
X1270000Y3810000D03*
X1270000Y16510000D03*
X1270000Y6350000D03*
X1270000Y8890000D03*
X1270000Y77470000D03*
X1270000Y72390000D03*
D13*
X1270000Y52070000D03*
D12*
X1270000Y57150000D03*
X1270000Y59690000D03*
X1270000Y80010000D03*
X1270000Y82550000D03*
X1270000Y62230000D03*
X1270000Y74930000D03*
X1270000Y64770000D03*
X1270000Y54610000D03*
X1270000Y67310000D03*
X1270000Y69850000D03*
G04 --- BOARD END --- *
%TF.MD5,58e4b3aa701d66401e7f1ef8f3c3d921*%
M02*
