G04 --- HEADER BEGIN --- *
%TF.GenerationSoftware,LibrePCB,LibrePCB,0.1.5*%
%TF.CreationDate,2020-12-27T00:53:52*%
%TF.ProjectId,bob_ddr_sdram_4m16b - default,91b37e6c-9424-4871-8535-6cfacb37efd9,v1*%
%TF.Part,Single*%
%FSLAX66Y66*%
%MOMM*%
G01*
G74*
G04 --- HEADER END --- *
G04 --- APERTURE LIST BEGIN --- *
%ADD10O,2.19X1.587*%
%ADD11R,2.19X1.587*%
%ADD12R,1.5X0.35*%
%ADD13C,0.5*%
%ADD14C,0.01*%
%ADD15C,0.33*%
G04 --- APERTURE LIST END --- *
G04 --- BOARD BEGIN --- *
D10*
X26670000Y34290000D03*
X26670000Y44450000D03*
D11*
X26670000Y49530000D03*
D10*
X26670000Y39370000D03*
X26670000Y31750000D03*
X26670000Y21590000D03*
X26670000Y26670000D03*
X26670000Y41910000D03*
X26670000Y46990000D03*
X26670000Y29210000D03*
X26670000Y24130000D03*
X26670000Y36830000D03*
X26670000Y57150000D03*
X26670000Y62230000D03*
D11*
X26670000Y82550000D03*
D10*
X26670000Y77470000D03*
X26670000Y74930000D03*
X26670000Y54610000D03*
X26670000Y52070000D03*
X26670000Y72390000D03*
X26670000Y59690000D03*
X26670000Y69850000D03*
X26670000Y80010000D03*
X26670000Y67310000D03*
X26670000Y64770000D03*
D12*
X19650000Y48410000D03*
X8290000Y45160000D03*
X8290000Y37360000D03*
X19650000Y34110000D03*
X19650000Y45810000D03*
X19650000Y43860000D03*
X19650000Y31510000D03*
X8290000Y34760000D03*
X8290000Y36710000D03*
X19650000Y45160000D03*
X19650000Y41910000D03*
X8290000Y44510000D03*
X8290000Y45810000D03*
X8290000Y32810000D03*
X19650000Y41260000D03*
X19650000Y44510000D03*
X8290000Y32160000D03*
X19650000Y33460000D03*
X19650000Y36710000D03*
X8290000Y51010000D03*
X19650000Y47110000D03*
X8290000Y49060000D03*
X8290000Y39960000D03*
X8290000Y31510000D03*
X19650000Y47760000D03*
X19650000Y36060000D03*
X19650000Y39310000D03*
X19650000Y40610000D03*
X8290000Y47110000D03*
X8290000Y39310000D03*
X8290000Y40610000D03*
X8290000Y42560000D03*
X19650000Y46460000D03*
X19650000Y38010000D03*
X19650000Y37360000D03*
X19650000Y49710000D03*
X8290000Y34110000D03*
X8290000Y49710000D03*
X8290000Y41260000D03*
X19650000Y50360000D03*
X19650000Y39960000D03*
X19650000Y49060000D03*
X8290000Y50360000D03*
X8290000Y33460000D03*
X19650000Y51010000D03*
X8290000Y46460000D03*
X19650000Y51660000D03*
X8290000Y35410000D03*
X8290000Y43210000D03*
X19650000Y32810000D03*
X8290000Y36060000D03*
X8290000Y51660000D03*
X8290000Y41910000D03*
X8290000Y48410000D03*
X8290000Y43860000D03*
X19650000Y43210000D03*
X8290000Y38010000D03*
X8290000Y38660000D03*
X19650000Y52310000D03*
X19650000Y34760000D03*
X8290000Y52310000D03*
X19650000Y38660000D03*
X8290000Y47760000D03*
X19650000Y42560000D03*
X19650000Y32160000D03*
X19650000Y35410000D03*
D10*
X1270000Y36830000D03*
X1270000Y26670000D03*
D11*
X1270000Y21590000D03*
D10*
X1270000Y31750000D03*
X1270000Y39370000D03*
X1270000Y49530000D03*
X1270000Y44450000D03*
X1270000Y29210000D03*
X1270000Y24130000D03*
X1270000Y41910000D03*
X1270000Y46990000D03*
X1270000Y34290000D03*
X26670000Y1270000D03*
X26670000Y8890000D03*
X26670000Y6350000D03*
D11*
X26670000Y19050000D03*
D10*
X26670000Y16510000D03*
X26670000Y3810000D03*
X26670000Y13970000D03*
X26670000Y11430000D03*
X1270000Y19050000D03*
X1270000Y11430000D03*
X1270000Y13970000D03*
D11*
X1270000Y1270000D03*
D10*
X1270000Y3810000D03*
X1270000Y16510000D03*
X1270000Y6350000D03*
X1270000Y8890000D03*
X1270000Y77470000D03*
X1270000Y72390000D03*
D11*
X1270000Y52070000D03*
D10*
X1270000Y57150000D03*
X1270000Y59690000D03*
X1270000Y80010000D03*
X1270000Y82550000D03*
X1270000Y62230000D03*
X1270000Y74930000D03*
X1270000Y64770000D03*
X1270000Y54610000D03*
X1270000Y67310000D03*
X1270000Y69850000D03*
D13*
X17653000Y32131000D03*
X9525000Y43180000D03*
X18415000Y41275000D03*
X9525000Y48895000D03*
X9525000Y45085000D03*
X18415000Y45085000D03*
D14*
X20955000Y63500000D03*
D13*
X18415000Y52070000D03*
X18415000Y50800000D03*
X9525000Y40640000D03*
X9525000Y52070000D03*
X9525000Y50800000D03*
X9652000Y32131000D03*
X18288000Y32766000D03*
X18415000Y48895000D03*
X18415000Y31115000D03*
X9525000Y46990000D03*
X18415000Y43180000D03*
X18415000Y46990000D03*
X10287000Y31496000D03*
D15*
X7425000Y50360000D02*
X6604000Y51181000D01*
X6604000Y51181000D02*
X6604000Y69596000D01*
X8290000Y50360000D02*
X7425000Y50360000D01*
X6604000Y69596000D02*
X1270000Y74930000D01*
X8290000Y39310000D02*
X7052000Y39310000D01*
X3048000Y35306000D02*
X3048000Y33528000D01*
X7052000Y39310000D02*
X3048000Y35306000D01*
X3048000Y33528000D02*
X1270000Y31750000D01*
X17682000Y32160000D02*
X17653000Y32131000D01*
X19650000Y32160000D02*
X17682000Y32160000D01*
X8290000Y43210000D02*
X9495000Y43210000D01*
X9495000Y43210000D02*
X9525000Y43180000D01*
X24384000Y35052000D02*
X24384000Y31496000D01*
X24384000Y31496000D02*
X26670000Y29210000D01*
X19650000Y38660000D02*
X20776000Y38660000D01*
X20776000Y38660000D02*
X24384000Y35052000D01*
X19650000Y41260000D02*
X18430000Y41260000D01*
X18430000Y41260000D02*
X18415000Y41275000D01*
X8290000Y49060000D02*
X9360000Y49060000D01*
X9360000Y49060000D02*
X9525000Y48895000D01*
X21844000Y50673000D02*
X21844000Y67564000D01*
X20881000Y49710000D02*
X21844000Y50673000D01*
X19650000Y49710000D02*
X20881000Y49710000D01*
X21844000Y67564000D02*
X26670000Y72390000D01*
X20828000Y52070000D02*
X20828000Y74168000D01*
X20418000Y51660000D02*
X20828000Y52070000D01*
X20828000Y74168000D02*
X26670000Y80010000D01*
X19650000Y51660000D02*
X20418000Y51660000D01*
X21844000Y18796000D02*
X26670000Y13970000D01*
X21844000Y33782000D02*
X21844000Y18796000D01*
X20866000Y34760000D02*
X21844000Y33782000D01*
X19650000Y34760000D02*
X20866000Y34760000D01*
X5588000Y34036000D02*
X5588000Y18288000D01*
X6312000Y34760000D02*
X5588000Y34036000D01*
X5588000Y18288000D02*
X1270000Y13970000D01*
X8290000Y34760000D02*
X6312000Y34760000D01*
X9450000Y45160000D02*
X9525000Y45085000D01*
X8290000Y45160000D02*
X9450000Y45160000D01*
X22860000Y22860000D02*
X26670000Y19050000D01*
X19650000Y36060000D02*
X21090000Y36060000D01*
X21090000Y36060000D02*
X22860000Y34290000D01*
X22860000Y34290000D02*
X22860000Y22860000D01*
X19650000Y45160000D02*
X18490000Y45160000D01*
X18490000Y45160000D02*
X18415000Y45085000D01*
X19650000Y42560000D02*
X24780000Y42560000D01*
X24780000Y42560000D02*
X26670000Y44450000D01*
X8290000Y47760000D02*
X7485000Y47760000D01*
X5080000Y50165000D02*
X5080000Y60960000D01*
X5080000Y60960000D02*
X1270000Y64770000D01*
X7485000Y47760000D02*
X5080000Y50165000D01*
X22860000Y50165000D02*
X22860000Y60960000D01*
X22860000Y60960000D02*
X26670000Y64770000D01*
X20455000Y47760000D02*
X22860000Y50165000D01*
X19650000Y47760000D02*
X20455000Y47760000D01*
X8290000Y35410000D02*
X6200000Y35410000D01*
X5080000Y34290000D02*
X5080000Y20320000D01*
X5080000Y20320000D02*
X1270000Y16510000D01*
X6200000Y35410000D02*
X5080000Y34290000D01*
X4064000Y29464000D02*
X1270000Y26670000D01*
X7276000Y38010000D02*
X4064000Y34798000D01*
X8290000Y38010000D02*
X7276000Y38010000D01*
X4064000Y34798000D02*
X4064000Y29464000D01*
X6604000Y33020000D02*
X6604000Y14224000D01*
X6604000Y14224000D02*
X1270000Y8890000D01*
X8290000Y33460000D02*
X7044000Y33460000D01*
X7044000Y33460000D02*
X6604000Y33020000D01*
X19650000Y52310000D02*
X18655000Y52310000D01*
X18655000Y52310000D02*
X18415000Y52070000D01*
X8290000Y46460000D02*
X7515000Y46460000D01*
X4572000Y49403000D02*
X4572000Y56388000D01*
X7515000Y46460000D02*
X4572000Y49403000D01*
X4572000Y56388000D02*
X1270000Y59690000D01*
X20552000Y37360000D02*
X23368000Y34544000D01*
X23368000Y27432000D02*
X26670000Y24130000D01*
X19650000Y37360000D02*
X20552000Y37360000D01*
X23368000Y34544000D02*
X23368000Y27432000D01*
X8290000Y42560000D02*
X3160000Y42560000D01*
X3160000Y42560000D02*
X1270000Y44450000D01*
X19650000Y51010000D02*
X18625000Y51010000D01*
X18625000Y51010000D02*
X18415000Y50800000D01*
X6940000Y39960000D02*
X1270000Y34290000D01*
X8290000Y39960000D02*
X6940000Y39960000D01*
X3556000Y35052000D02*
X3556000Y31496000D01*
X8290000Y38660000D02*
X7164000Y38660000D01*
X7164000Y38660000D02*
X3556000Y35052000D01*
X3556000Y31496000D02*
X1270000Y29210000D01*
X8290000Y40610000D02*
X9495000Y40610000D01*
X9495000Y40610000D02*
X9525000Y40640000D01*
X8290000Y41260000D02*
X3160000Y41260000D01*
X3160000Y41260000D02*
X1270000Y39370000D01*
X19650000Y46460000D02*
X20425000Y46460000D01*
X23368000Y56388000D02*
X26670000Y59690000D01*
X23368000Y49403000D02*
X23368000Y56388000D01*
X20425000Y46460000D02*
X23368000Y49403000D01*
X20537000Y45810000D02*
X23876000Y49149000D01*
X23876000Y49149000D02*
X23876000Y54356000D01*
X23876000Y54356000D02*
X26670000Y57150000D01*
X19650000Y45810000D02*
X20537000Y45810000D01*
X19650000Y34110000D02*
X20754000Y34110000D01*
X21336000Y16764000D02*
X26670000Y11430000D01*
X20754000Y34110000D02*
X21336000Y33528000D01*
X21336000Y33528000D02*
X21336000Y16764000D01*
X21336000Y69596000D02*
X26670000Y74930000D01*
X20769000Y50360000D02*
X21336000Y50927000D01*
X21336000Y50927000D02*
X21336000Y69596000D01*
X19650000Y50360000D02*
X20769000Y50360000D01*
X8290000Y52310000D02*
X9285000Y52310000D01*
X9285000Y52310000D02*
X9525000Y52070000D01*
X9315000Y51010000D02*
X9525000Y50800000D01*
X8290000Y51010000D02*
X9315000Y51010000D01*
X6088000Y36060000D02*
X4572000Y34544000D01*
X8290000Y36060000D02*
X6088000Y36060000D01*
X4572000Y22352000D02*
X1270000Y19050000D01*
X4572000Y34544000D02*
X4572000Y22352000D01*
X8290000Y32160000D02*
X9623000Y32160000D01*
X9623000Y32160000D02*
X9652000Y32131000D01*
X20978000Y35410000D02*
X22352000Y34036000D01*
X22352000Y20828000D02*
X26670000Y16510000D01*
X19650000Y35410000D02*
X20978000Y35410000D01*
X22352000Y34036000D02*
X22352000Y20828000D01*
X8290000Y48410000D02*
X7597000Y48410000D01*
X7597000Y48410000D02*
X5588000Y50419000D01*
X5588000Y50419000D02*
X5588000Y62992000D01*
X5588000Y62992000D02*
X1270000Y67310000D01*
X7560000Y44510000D02*
X3556000Y48514000D01*
X8290000Y44510000D02*
X7560000Y44510000D01*
X3556000Y48514000D02*
X3556000Y49784000D01*
X3556000Y49784000D02*
X1270000Y52070000D01*
X20664000Y38010000D02*
X23876000Y34798000D01*
X23876000Y34798000D02*
X23876000Y29464000D01*
X19650000Y38010000D02*
X20664000Y38010000D01*
X23876000Y29464000D02*
X26670000Y26670000D01*
X7112000Y52070000D02*
X7112000Y74168000D01*
X8290000Y51660000D02*
X7522000Y51660000D01*
X7112000Y74168000D02*
X1270000Y80010000D01*
X7522000Y51660000D02*
X7112000Y52070000D01*
X19650000Y48410000D02*
X20343000Y48410000D01*
X22352000Y50419000D02*
X22352000Y62992000D01*
X20343000Y48410000D02*
X22352000Y50419000D01*
X22352000Y62992000D02*
X26670000Y67310000D01*
X24892000Y35306000D02*
X24892000Y33528000D01*
X20888000Y39310000D02*
X24892000Y35306000D01*
X24892000Y33528000D02*
X26670000Y31750000D01*
X19650000Y39310000D02*
X20888000Y39310000D01*
X18332000Y32810000D02*
X18288000Y32766000D01*
X19650000Y32810000D02*
X18332000Y32810000D01*
X20380000Y44510000D02*
X24384000Y48514000D01*
X24384000Y48514000D02*
X24384000Y49784000D01*
X19650000Y44510000D02*
X20380000Y44510000D01*
X24384000Y49784000D02*
X26670000Y52070000D01*
X18580000Y49060000D02*
X18415000Y48895000D01*
X19650000Y49060000D02*
X18580000Y49060000D01*
X19650000Y31510000D02*
X18810000Y31510000D01*
X18810000Y31510000D02*
X18415000Y31115000D01*
X7403000Y45810000D02*
X4064000Y49149000D01*
X4064000Y54356000D02*
X1270000Y57150000D01*
X4064000Y49149000D02*
X4064000Y54356000D01*
X8290000Y45810000D02*
X7403000Y45810000D01*
X7112000Y12192000D02*
X1270000Y6350000D01*
X8290000Y32810000D02*
X7537000Y32810000D01*
X7112000Y32385000D02*
X7112000Y12192000D01*
X7537000Y32810000D02*
X7112000Y32385000D01*
X8290000Y47110000D02*
X9405000Y47110000D01*
X9405000Y47110000D02*
X9525000Y46990000D01*
X6096000Y33782000D02*
X6096000Y16256000D01*
X6096000Y16256000D02*
X1270000Y11430000D01*
X8290000Y34110000D02*
X6424000Y34110000D01*
X6424000Y34110000D02*
X6096000Y33782000D01*
X19650000Y39960000D02*
X21000000Y39960000D01*
X21000000Y39960000D02*
X26670000Y34290000D01*
X18445000Y43210000D02*
X18415000Y43180000D01*
X19650000Y43210000D02*
X18445000Y43210000D01*
X18535000Y47110000D02*
X18415000Y46990000D01*
X19650000Y47110000D02*
X18535000Y47110000D01*
X20828000Y14732000D02*
X26670000Y8890000D01*
X20828000Y33274000D02*
X20828000Y14732000D01*
X20642000Y33460000D02*
X20828000Y33274000D01*
X19650000Y33460000D02*
X20642000Y33460000D01*
X8290000Y49710000D02*
X7313000Y49710000D01*
X7313000Y49710000D02*
X6096000Y50927000D01*
X6096000Y67564000D02*
X1270000Y72390000D01*
X6096000Y50927000D02*
X6096000Y67564000D01*
X10273000Y31510000D02*
X10287000Y31496000D01*
X8290000Y31510000D02*
X10273000Y31510000D01*
G04 --- BOARD END --- *
%TF.MD5,972035fd7a80b395360c86bbdbd98963*%
M02*
