G04 --- HEADER BEGIN --- *
%TF.GenerationSoftware,LibrePCB,LibrePCB,0.1.5*%
%TF.CreationDate,2020-12-27T00:53:52*%
%TF.ProjectId,bob_ddr_sdram_4m16b - default,91b37e6c-9424-4871-8535-6cfacb37efd9,v1*%
%TF.Part,Single*%
%FSLAX66Y66*%
%MOMM*%
G01*
G74*
G04 --- HEADER END --- *
G04 --- APERTURE LIST BEGIN --- *
%ADD10R,1.43X0.28*%
G04 --- APERTURE LIST END --- *
G04 --- BOARD BEGIN --- *
D10*
X19650000Y48410000D03*
X8290000Y45160000D03*
X8290000Y37360000D03*
X19650000Y34110000D03*
X19650000Y45810000D03*
X19650000Y43860000D03*
X19650000Y31510000D03*
X8290000Y34760000D03*
X8290000Y36710000D03*
X19650000Y45160000D03*
X19650000Y41910000D03*
X8290000Y44510000D03*
X8290000Y45810000D03*
X8290000Y32810000D03*
X19650000Y41260000D03*
X19650000Y44510000D03*
X8290000Y32160000D03*
X19650000Y33460000D03*
X19650000Y36710000D03*
X8290000Y51010000D03*
X19650000Y47110000D03*
X8290000Y49060000D03*
X8290000Y39960000D03*
X8290000Y31510000D03*
X19650000Y47760000D03*
X19650000Y36060000D03*
X19650000Y39310000D03*
X19650000Y40610000D03*
X8290000Y47110000D03*
X8290000Y39310000D03*
X8290000Y40610000D03*
X8290000Y42560000D03*
X19650000Y46460000D03*
X19650000Y38010000D03*
X19650000Y37360000D03*
X19650000Y49710000D03*
X8290000Y34110000D03*
X8290000Y49710000D03*
X8290000Y41260000D03*
X19650000Y50360000D03*
X19650000Y39960000D03*
X19650000Y49060000D03*
X8290000Y50360000D03*
X8290000Y33460000D03*
X19650000Y51010000D03*
X8290000Y46460000D03*
X19650000Y51660000D03*
X8290000Y35410000D03*
X8290000Y43210000D03*
X19650000Y32810000D03*
X8290000Y36060000D03*
X8290000Y51660000D03*
X8290000Y41910000D03*
X8290000Y48410000D03*
X8290000Y43860000D03*
X19650000Y43210000D03*
X8290000Y38010000D03*
X8290000Y38660000D03*
X19650000Y52310000D03*
X19650000Y34760000D03*
X8290000Y52310000D03*
X19650000Y38660000D03*
X8290000Y47760000D03*
X19650000Y42560000D03*
X19650000Y32160000D03*
X19650000Y35410000D03*
G04 --- BOARD END --- *
%TF.MD5,1dd306fc15e70dea161b486091889d5e*%
M02*
