M48
;DRILL FILE
;Generated by LibrePCB 0.1.5
;Creation Date: 2020-12-27T00:53:52
FMAT,2
METRIC,TZ
T1C0.01
T2C0.3
T3C0.9
T4C1.0
T5C1.1
%
G90
G05
M71
T1
X20.955Y63.5
T2
X10.287Y31.496
X18.415Y46.99
X18.415Y43.18
X9.525Y46.99
X18.415Y31.115
X18.415Y48.895
X18.288Y32.766
X9.652Y32.131
X9.525Y50.8
X9.525Y52.07
X9.525Y40.64
X18.415Y50.8
X18.415Y52.07
X18.415Y45.085
X9.525Y45.085
X9.525Y48.895
X18.415Y41.275
X9.525Y43.18
X17.653Y32.131
T3
X1.27Y8.89
X1.27Y6.35
X1.27Y16.51
X1.27Y3.81
X1.27Y1.27
X1.27Y13.97
X1.27Y11.43
X1.27Y19.05
X26.67Y11.43
X26.67Y13.97
X26.67Y3.81
X26.67Y16.51
X26.67Y19.05
X26.67Y6.35
X26.67Y8.89
X26.67Y1.27
T4
X1.27Y69.85
X1.27Y67.31
X1.27Y54.61
X1.27Y64.77
X1.27Y74.93
X1.27Y62.23
X1.27Y82.55
X1.27Y80.01
X1.27Y59.69
X1.27Y57.15
X1.27Y52.07
X1.27Y72.39
X1.27Y77.47
X26.67Y64.77
X26.67Y67.31
X26.67Y80.01
X26.67Y69.85
X26.67Y59.69
X26.67Y72.39
X26.67Y52.07
X26.67Y54.61
X26.67Y74.93
X26.67Y77.47
X26.67Y82.55
X26.67Y62.23
X26.67Y57.15
T5
X1.27Y34.29
X1.27Y46.99
X1.27Y41.91
X1.27Y24.13
X1.27Y29.21
X1.27Y44.45
X1.27Y49.53
X1.27Y39.37
X1.27Y31.75
X1.27Y21.59
X1.27Y26.67
X1.27Y36.83
X26.67Y36.83
X26.67Y24.13
X26.67Y29.21
X26.67Y46.99
X26.67Y41.91
X26.67Y26.67
X26.67Y21.59
X26.67Y31.75
X26.67Y39.37
X26.67Y49.53
X26.67Y44.45
X26.67Y34.29
T0
M30
