G04 --- HEADER BEGIN --- *
%TF.GenerationSoftware,LibrePCB,LibrePCB,0.1.5*%
%TF.CreationDate,2020-12-27T00:53:52*%
%TF.ProjectId,bob_ddr_sdram_4m16b - default,91b37e6c-9424-4871-8535-6cfacb37efd9,v1*%
%TF.Part,Single*%
%FSLAX66Y66*%
%MOMM*%
G01*
G74*
G04 --- HEADER END --- *
G04 --- APERTURE LIST BEGIN --- *
%ADD10O,2.19X1.587*%
%ADD11R,2.19X1.587*%
%ADD12C,0.5*%
%ADD13C,0.01*%
%ADD14C,0.0*%
G04 --- APERTURE LIST END --- *
G04 --- BOARD BEGIN --- *
D10*
X26670000Y34290000D03*
X26670000Y44450000D03*
D11*
X26670000Y49530000D03*
D10*
X26670000Y39370000D03*
X26670000Y31750000D03*
X26670000Y21590000D03*
X26670000Y26670000D03*
X26670000Y41910000D03*
X26670000Y46990000D03*
X26670000Y29210000D03*
X26670000Y24130000D03*
X26670000Y36830000D03*
X26670000Y57150000D03*
X26670000Y62230000D03*
D11*
X26670000Y82550000D03*
D10*
X26670000Y77470000D03*
X26670000Y74930000D03*
X26670000Y54610000D03*
X26670000Y52070000D03*
X26670000Y72390000D03*
X26670000Y59690000D03*
X26670000Y69850000D03*
X26670000Y80010000D03*
X26670000Y67310000D03*
X26670000Y64770000D03*
X1270000Y36830000D03*
X1270000Y26670000D03*
D11*
X1270000Y21590000D03*
D10*
X1270000Y31750000D03*
X1270000Y39370000D03*
X1270000Y49530000D03*
X1270000Y44450000D03*
X1270000Y29210000D03*
X1270000Y24130000D03*
X1270000Y41910000D03*
X1270000Y46990000D03*
X1270000Y34290000D03*
X26670000Y1270000D03*
X26670000Y8890000D03*
X26670000Y6350000D03*
D11*
X26670000Y19050000D03*
D10*
X26670000Y16510000D03*
X26670000Y3810000D03*
X26670000Y13970000D03*
X26670000Y11430000D03*
X1270000Y19050000D03*
X1270000Y11430000D03*
X1270000Y13970000D03*
D11*
X1270000Y1270000D03*
D10*
X1270000Y3810000D03*
X1270000Y16510000D03*
X1270000Y6350000D03*
X1270000Y8890000D03*
X1270000Y77470000D03*
X1270000Y72390000D03*
D11*
X1270000Y52070000D03*
D10*
X1270000Y57150000D03*
X1270000Y59690000D03*
X1270000Y80010000D03*
X1270000Y82550000D03*
X1270000Y62230000D03*
X1270000Y74930000D03*
X1270000Y64770000D03*
X1270000Y54610000D03*
X1270000Y67310000D03*
X1270000Y69850000D03*
D12*
X17653000Y32131000D03*
X9525000Y43180000D03*
X18415000Y41275000D03*
X9525000Y48895000D03*
X9525000Y45085000D03*
X18415000Y45085000D03*
D13*
X20955000Y63500000D03*
D12*
X18415000Y52070000D03*
X18415000Y50800000D03*
X9525000Y40640000D03*
X9525000Y52070000D03*
X9525000Y50800000D03*
X9652000Y32131000D03*
X18288000Y32766000D03*
X18415000Y48895000D03*
X18415000Y31115000D03*
X9525000Y46990000D03*
X18415000Y43180000D03*
X18415000Y46990000D03*
X10287000Y31496000D03*
D14*
G36*
X27264327Y654500D02*
X27305000Y735000D01*
X27305000Y2640416D01*
X27285500Y2699743D01*
X27234605Y2735933D01*
X27181550Y2736554D01*
X27181423Y2737233D01*
X27178013Y2736596D01*
X27177640Y2736600D01*
X27176880Y2736384D01*
X27167826Y2734691D01*
X26973806Y2716714D01*
X26969189Y2716500D01*
X26370811Y2716500D01*
X26366194Y2716714D01*
X26172171Y2734692D01*
X26163130Y2736381D01*
X25977921Y2789078D01*
X25969346Y2792400D01*
X25796982Y2878227D01*
X25789159Y2883071D01*
X25635506Y2999104D01*
X25628694Y3005314D01*
X25498987Y3147598D01*
X25493433Y3154951D01*
X25392068Y3318660D01*
X25387969Y3326894D01*
X25318415Y3506432D01*
X25315892Y3515300D01*
X25280513Y3704560D01*
X25279664Y3713725D01*
X25279664Y3906274D01*
X25280513Y3915439D01*
X25315892Y4104699D01*
X25318415Y4113567D01*
X25387969Y4293105D01*
X25392068Y4301339D01*
X25493433Y4465048D01*
X25498987Y4472401D01*
X25628694Y4614685D01*
X25635506Y4620895D01*
X25789159Y4736928D01*
X25796982Y4741772D01*
X25969346Y4827599D01*
X25977921Y4830921D01*
X26163128Y4883617D01*
X26172172Y4885307D01*
X26366195Y4903286D01*
X26370811Y4903500D01*
X26969189Y4903500D01*
X26973805Y4903286D01*
X27167825Y4885308D01*
X27176881Y4883615D01*
X27177640Y4883399D01*
X27177965Y4883412D01*
X27181422Y4882766D01*
X27181570Y4883558D01*
X27240039Y4885923D01*
X27288773Y4924974D01*
X27305000Y4979583D01*
X27305000Y5180416D01*
X27285500Y5239743D01*
X27234605Y5275933D01*
X27181550Y5276554D01*
X27181423Y5277233D01*
X27178013Y5276596D01*
X27177640Y5276600D01*
X27176880Y5276384D01*
X27167826Y5274691D01*
X26973806Y5256714D01*
X26969189Y5256500D01*
X26370811Y5256500D01*
X26366194Y5256714D01*
X26172171Y5274692D01*
X26163130Y5276381D01*
X25977921Y5329078D01*
X25969346Y5332400D01*
X25796982Y5418227D01*
X25789159Y5423071D01*
X25635506Y5539104D01*
X25628694Y5545314D01*
X25498987Y5687598D01*
X25493433Y5694951D01*
X25392068Y5858660D01*
X25387969Y5866894D01*
X25318415Y6046432D01*
X25315892Y6055300D01*
X25280513Y6244560D01*
X25279664Y6253725D01*
X25279664Y6446274D01*
X25280513Y6455439D01*
X25315892Y6644699D01*
X25318415Y6653567D01*
X25387969Y6833105D01*
X25392068Y6841339D01*
X25493433Y7005048D01*
X25498987Y7012401D01*
X25628694Y7154685D01*
X25635506Y7160895D01*
X25789159Y7276928D01*
X25796982Y7281772D01*
X25969346Y7367599D01*
X25977921Y7370921D01*
X26163128Y7423617D01*
X26172172Y7425307D01*
X26366195Y7443286D01*
X26370811Y7443500D01*
X26969189Y7443500D01*
X26973805Y7443286D01*
X27167825Y7425308D01*
X27176881Y7423615D01*
X27177640Y7423399D01*
X27177965Y7423412D01*
X27181422Y7422766D01*
X27181570Y7423558D01*
X27240039Y7425923D01*
X27288773Y7464974D01*
X27305000Y7519583D01*
X27305000Y7720416D01*
X27285500Y7779743D01*
X27234605Y7815933D01*
X27181550Y7816554D01*
X27181423Y7817233D01*
X27178013Y7816596D01*
X27177640Y7816600D01*
X27176880Y7816384D01*
X27167826Y7814691D01*
X26973806Y7796714D01*
X26969189Y7796500D01*
X26370811Y7796500D01*
X26366194Y7796714D01*
X26172171Y7814692D01*
X26163130Y7816381D01*
X25977921Y7869078D01*
X25969346Y7872400D01*
X25796982Y7958227D01*
X25789159Y7963071D01*
X25635506Y8079104D01*
X25628694Y8085314D01*
X25498987Y8227598D01*
X25493433Y8234951D01*
X25392068Y8398660D01*
X25387969Y8406894D01*
X25318415Y8586432D01*
X25315892Y8595300D01*
X25280513Y8784560D01*
X25279664Y8793725D01*
X25279664Y8986274D01*
X25280513Y8995439D01*
X25315892Y9184699D01*
X25318415Y9193567D01*
X25387969Y9373105D01*
X25392068Y9381339D01*
X25493433Y9545048D01*
X25498987Y9552401D01*
X25628694Y9694685D01*
X25635506Y9700895D01*
X25789159Y9816928D01*
X25796982Y9821772D01*
X25969346Y9907599D01*
X25977921Y9910921D01*
X26163128Y9963617D01*
X26172172Y9965307D01*
X26366195Y9983286D01*
X26370811Y9983500D01*
X26969189Y9983500D01*
X26973805Y9983286D01*
X27167825Y9965308D01*
X27176881Y9963615D01*
X27177640Y9963399D01*
X27177965Y9963412D01*
X27181422Y9962766D01*
X27181570Y9963558D01*
X27240039Y9965923D01*
X27288773Y10004974D01*
X27305000Y10059583D01*
X27305000Y10260416D01*
X27285500Y10319743D01*
X27234605Y10355933D01*
X27181550Y10356554D01*
X27181423Y10357233D01*
X27178013Y10356596D01*
X27177640Y10356600D01*
X27176880Y10356384D01*
X27167826Y10354691D01*
X26973806Y10336714D01*
X26969189Y10336500D01*
X26370811Y10336500D01*
X26366194Y10336714D01*
X26172171Y10354692D01*
X26163130Y10356381D01*
X25977921Y10409078D01*
X25969346Y10412400D01*
X25796982Y10498227D01*
X25789159Y10503071D01*
X25635506Y10619104D01*
X25628694Y10625314D01*
X25498987Y10767598D01*
X25493433Y10774951D01*
X25392068Y10938660D01*
X25387969Y10946894D01*
X25318415Y11126432D01*
X25315892Y11135300D01*
X25280513Y11324560D01*
X25279664Y11333725D01*
X25279664Y11526274D01*
X25280513Y11535439D01*
X25315892Y11724699D01*
X25318415Y11733567D01*
X25387969Y11913105D01*
X25392068Y11921339D01*
X25493433Y12085048D01*
X25498987Y12092401D01*
X25628694Y12234685D01*
X25635506Y12240895D01*
X25789159Y12356928D01*
X25796982Y12361772D01*
X25969346Y12447599D01*
X25977921Y12450921D01*
X26163128Y12503617D01*
X26172172Y12505307D01*
X26366195Y12523286D01*
X26370811Y12523500D01*
X26969189Y12523500D01*
X26973805Y12523286D01*
X27167825Y12505308D01*
X27176881Y12503615D01*
X27177640Y12503399D01*
X27177965Y12503412D01*
X27181422Y12502766D01*
X27181570Y12503558D01*
X27240039Y12505923D01*
X27288773Y12544974D01*
X27305000Y12599583D01*
X27305000Y12800416D01*
X27285500Y12859743D01*
X27234605Y12895933D01*
X27181550Y12896554D01*
X27181423Y12897233D01*
X27178013Y12896596D01*
X27177640Y12896600D01*
X27176880Y12896384D01*
X27167826Y12894691D01*
X26973806Y12876714D01*
X26969189Y12876500D01*
X26370811Y12876500D01*
X26366194Y12876714D01*
X26172171Y12894692D01*
X26163130Y12896381D01*
X25977921Y12949078D01*
X25969346Y12952400D01*
X25796982Y13038227D01*
X25789159Y13043071D01*
X25635506Y13159104D01*
X25628694Y13165314D01*
X25498987Y13307598D01*
X25493433Y13314951D01*
X25392068Y13478660D01*
X25387969Y13486894D01*
X25318415Y13666432D01*
X25315892Y13675300D01*
X25280513Y13864560D01*
X25279664Y13873725D01*
X25279664Y14066274D01*
X25280513Y14075439D01*
X25315892Y14264699D01*
X25318415Y14273567D01*
X25387969Y14453105D01*
X25392068Y14461339D01*
X25493433Y14625048D01*
X25498987Y14632401D01*
X25628694Y14774685D01*
X25635506Y14780895D01*
X25789159Y14896928D01*
X25796982Y14901772D01*
X25969346Y14987599D01*
X25977921Y14990921D01*
X26163128Y15043617D01*
X26172172Y15045307D01*
X26366195Y15063286D01*
X26370811Y15063500D01*
X26969189Y15063500D01*
X26973805Y15063286D01*
X27167825Y15045308D01*
X27176881Y15043615D01*
X27177640Y15043399D01*
X27177965Y15043412D01*
X27181422Y15042766D01*
X27181570Y15043558D01*
X27240039Y15045923D01*
X27288773Y15084974D01*
X27305000Y15139583D01*
X27305000Y15340416D01*
X27285500Y15399743D01*
X27234605Y15435933D01*
X27181550Y15436554D01*
X27181423Y15437233D01*
X27178013Y15436596D01*
X27177640Y15436600D01*
X27176880Y15436384D01*
X27167826Y15434691D01*
X26973806Y15416714D01*
X26969189Y15416500D01*
X26370811Y15416500D01*
X26366194Y15416714D01*
X26172171Y15434692D01*
X26163130Y15436381D01*
X25977921Y15489078D01*
X25969346Y15492400D01*
X25796982Y15578227D01*
X25789159Y15583071D01*
X25635506Y15699104D01*
X25628694Y15705314D01*
X25498987Y15847598D01*
X25493433Y15854951D01*
X25392068Y16018660D01*
X25387969Y16026894D01*
X25318415Y16206432D01*
X25315892Y16215300D01*
X25280513Y16404560D01*
X25279664Y16413725D01*
X25279664Y16606274D01*
X25280513Y16615439D01*
X25315892Y16804699D01*
X25318415Y16813567D01*
X25387969Y16993105D01*
X25392068Y17001339D01*
X25493433Y17165048D01*
X25498987Y17172401D01*
X25628694Y17314685D01*
X25635506Y17320895D01*
X25789159Y17436928D01*
X25796982Y17441772D01*
X25969346Y17527599D01*
X25977921Y17530921D01*
X26163128Y17583617D01*
X26172172Y17585307D01*
X26366195Y17603286D01*
X26370811Y17603500D01*
X26969189Y17603500D01*
X26973805Y17603286D01*
X27167825Y17585308D01*
X27176881Y17583615D01*
X27177640Y17583399D01*
X27177965Y17583412D01*
X27181422Y17582766D01*
X27181570Y17583558D01*
X27240039Y17585923D01*
X27288773Y17624974D01*
X27305000Y17679583D01*
X27305000Y17856500D01*
X27285500Y17915827D01*
X27205000Y17956500D01*
X25291013Y17956500D01*
X25286248Y17958066D01*
X25275000Y17980328D01*
X25275000Y20127487D01*
X25276566Y20132252D01*
X25298828Y20143500D01*
X27205000Y20143500D01*
X27264327Y20163000D01*
X27305000Y20243500D01*
X27305000Y20420416D01*
X27285500Y20479743D01*
X27234605Y20515933D01*
X27181550Y20516554D01*
X27181423Y20517233D01*
X27178013Y20516596D01*
X27177640Y20516600D01*
X27176880Y20516384D01*
X27167826Y20514691D01*
X26973806Y20496714D01*
X26969189Y20496500D01*
X26370811Y20496500D01*
X26366194Y20496714D01*
X26172171Y20514692D01*
X26163130Y20516381D01*
X25977921Y20569078D01*
X25969346Y20572400D01*
X25796982Y20658227D01*
X25789159Y20663071D01*
X25635506Y20779104D01*
X25628694Y20785314D01*
X25498987Y20927598D01*
X25493433Y20934951D01*
X25392068Y21098660D01*
X25387969Y21106894D01*
X25318415Y21286432D01*
X25315892Y21295300D01*
X25280513Y21484560D01*
X25279664Y21493725D01*
X25279664Y21686274D01*
X25280513Y21695439D01*
X25315892Y21884699D01*
X25318415Y21893567D01*
X25387969Y22073105D01*
X25392068Y22081339D01*
X25493433Y22245048D01*
X25498987Y22252401D01*
X25628694Y22394685D01*
X25635506Y22400895D01*
X25789159Y22516928D01*
X25796982Y22521772D01*
X25969346Y22607599D01*
X25977921Y22610921D01*
X26163128Y22663617D01*
X26172172Y22665307D01*
X26366195Y22683286D01*
X26370811Y22683500D01*
X26969189Y22683500D01*
X26973805Y22683286D01*
X27167825Y22665308D01*
X27176881Y22663615D01*
X27177640Y22663399D01*
X27177965Y22663412D01*
X27181422Y22662766D01*
X27181570Y22663558D01*
X27240039Y22665923D01*
X27288773Y22704974D01*
X27305000Y22759583D01*
X27305000Y22960416D01*
X27285500Y23019743D01*
X27234605Y23055933D01*
X27181550Y23056554D01*
X27181423Y23057233D01*
X27178013Y23056596D01*
X27177640Y23056600D01*
X27176880Y23056384D01*
X27167826Y23054691D01*
X26973806Y23036714D01*
X26969189Y23036500D01*
X26370811Y23036500D01*
X26366194Y23036714D01*
X26172171Y23054692D01*
X26163130Y23056381D01*
X25977921Y23109078D01*
X25969346Y23112400D01*
X25796982Y23198227D01*
X25789159Y23203071D01*
X25635506Y23319104D01*
X25628694Y23325314D01*
X25498987Y23467598D01*
X25493433Y23474951D01*
X25392068Y23638660D01*
X25387969Y23646894D01*
X25318415Y23826432D01*
X25315892Y23835300D01*
X25280513Y24024560D01*
X25279664Y24033725D01*
X25279664Y24226274D01*
X25280513Y24235439D01*
X25315892Y24424699D01*
X25318415Y24433567D01*
X25387969Y24613105D01*
X25392068Y24621339D01*
X25493433Y24785048D01*
X25498987Y24792401D01*
X25628694Y24934685D01*
X25635506Y24940895D01*
X25789159Y25056928D01*
X25796982Y25061772D01*
X25969346Y25147599D01*
X25977921Y25150921D01*
X26163128Y25203617D01*
X26172172Y25205307D01*
X26366195Y25223286D01*
X26370811Y25223500D01*
X26969189Y25223500D01*
X26973805Y25223286D01*
X27167825Y25205308D01*
X27176881Y25203615D01*
X27177640Y25203399D01*
X27177965Y25203412D01*
X27181422Y25202766D01*
X27181570Y25203558D01*
X27240039Y25205923D01*
X27288773Y25244974D01*
X27305000Y25299583D01*
X27305000Y25500416D01*
X27285500Y25559743D01*
X27234605Y25595933D01*
X27181550Y25596554D01*
X27181423Y25597233D01*
X27178013Y25596596D01*
X27177640Y25596600D01*
X27176880Y25596384D01*
X27167826Y25594691D01*
X26973806Y25576714D01*
X26969189Y25576500D01*
X26370811Y25576500D01*
X26366194Y25576714D01*
X26172171Y25594692D01*
X26163130Y25596381D01*
X25977921Y25649078D01*
X25969346Y25652400D01*
X25796982Y25738227D01*
X25789159Y25743071D01*
X25635506Y25859104D01*
X25628694Y25865314D01*
X25498987Y26007598D01*
X25493433Y26014951D01*
X25392068Y26178660D01*
X25387969Y26186894D01*
X25318415Y26366432D01*
X25315892Y26375300D01*
X25280513Y26564560D01*
X25279664Y26573725D01*
X25279664Y26766274D01*
X25280513Y26775439D01*
X25315892Y26964699D01*
X25318415Y26973567D01*
X25387969Y27153105D01*
X25392068Y27161339D01*
X25493433Y27325048D01*
X25498987Y27332401D01*
X25628694Y27474685D01*
X25635506Y27480895D01*
X25789159Y27596928D01*
X25796982Y27601772D01*
X25969346Y27687599D01*
X25977921Y27690921D01*
X26163128Y27743617D01*
X26172172Y27745307D01*
X26366195Y27763286D01*
X26370811Y27763500D01*
X26969189Y27763500D01*
X26973805Y27763286D01*
X27167825Y27745308D01*
X27176881Y27743615D01*
X27177640Y27743399D01*
X27177965Y27743412D01*
X27181422Y27742766D01*
X27181570Y27743558D01*
X27240039Y27745923D01*
X27288773Y27784974D01*
X27305000Y27839583D01*
X27305000Y28040416D01*
X27285500Y28099743D01*
X27234605Y28135933D01*
X27181550Y28136554D01*
X27181423Y28137233D01*
X27178013Y28136596D01*
X27177640Y28136600D01*
X27176880Y28136384D01*
X27167826Y28134691D01*
X26973806Y28116714D01*
X26969189Y28116500D01*
X26370811Y28116500D01*
X26366194Y28116714D01*
X26172171Y28134692D01*
X26163130Y28136381D01*
X25977921Y28189078D01*
X25969346Y28192400D01*
X25796982Y28278227D01*
X25789159Y28283071D01*
X25635506Y28399104D01*
X25628694Y28405314D01*
X25498987Y28547598D01*
X25493433Y28554951D01*
X25392068Y28718660D01*
X25387969Y28726894D01*
X25318415Y28906432D01*
X25315892Y28915300D01*
X25280513Y29104560D01*
X25279664Y29113725D01*
X25279664Y29306274D01*
X25280513Y29315439D01*
X25315892Y29504699D01*
X25318415Y29513567D01*
X25387969Y29693105D01*
X25392068Y29701339D01*
X25493433Y29865048D01*
X25498987Y29872401D01*
X25628694Y30014685D01*
X25635506Y30020895D01*
X25789159Y30136928D01*
X25796982Y30141772D01*
X25969346Y30227599D01*
X25977921Y30230921D01*
X26163128Y30283617D01*
X26172172Y30285307D01*
X26366195Y30303286D01*
X26370811Y30303500D01*
X26969189Y30303500D01*
X26973805Y30303286D01*
X27167825Y30285308D01*
X27176881Y30283615D01*
X27177640Y30283399D01*
X27177965Y30283412D01*
X27181422Y30282766D01*
X27181570Y30283558D01*
X27240039Y30285923D01*
X27288773Y30324974D01*
X27305000Y30379583D01*
X27305000Y30580416D01*
X27285500Y30639743D01*
X27234605Y30675933D01*
X27181550Y30676554D01*
X27181423Y30677233D01*
X27178013Y30676596D01*
X27177640Y30676600D01*
X27176880Y30676384D01*
X27167826Y30674691D01*
X26973806Y30656714D01*
X26969189Y30656500D01*
X26370811Y30656500D01*
X26366194Y30656714D01*
X26172171Y30674692D01*
X26163130Y30676381D01*
X25977921Y30729078D01*
X25969346Y30732400D01*
X25796982Y30818227D01*
X25789159Y30823071D01*
X25635506Y30939104D01*
X25628694Y30945314D01*
X25498987Y31087598D01*
X25493433Y31094951D01*
X25392068Y31258660D01*
X25387969Y31266894D01*
X25318415Y31446432D01*
X25315892Y31455300D01*
X25280513Y31644560D01*
X25279664Y31653725D01*
X25279664Y31846274D01*
X25280513Y31855439D01*
X25315892Y32044699D01*
X25318415Y32053567D01*
X25387969Y32233105D01*
X25392068Y32241339D01*
X25493433Y32405048D01*
X25498987Y32412401D01*
X25628694Y32554685D01*
X25635506Y32560895D01*
X25789159Y32676928D01*
X25796982Y32681772D01*
X25969346Y32767599D01*
X25977921Y32770921D01*
X26163128Y32823617D01*
X26172172Y32825307D01*
X26366195Y32843286D01*
X26370811Y32843500D01*
X26969189Y32843500D01*
X26973805Y32843286D01*
X27167825Y32825308D01*
X27176881Y32823615D01*
X27177640Y32823399D01*
X27177965Y32823412D01*
X27181422Y32822766D01*
X27181570Y32823558D01*
X27240039Y32825923D01*
X27288773Y32864974D01*
X27305000Y32919583D01*
X27305000Y33120416D01*
X27285500Y33179743D01*
X27234605Y33215933D01*
X27181550Y33216554D01*
X27181423Y33217233D01*
X27178013Y33216596D01*
X27177640Y33216600D01*
X27176880Y33216384D01*
X27167826Y33214691D01*
X26973806Y33196714D01*
X26969189Y33196500D01*
X26370811Y33196500D01*
X26366194Y33196714D01*
X26172171Y33214692D01*
X26163130Y33216381D01*
X25977921Y33269078D01*
X25969346Y33272400D01*
X25796982Y33358227D01*
X25789159Y33363071D01*
X25635506Y33479104D01*
X25628694Y33485314D01*
X25498987Y33627598D01*
X25493433Y33634951D01*
X25392068Y33798660D01*
X25387969Y33806894D01*
X25318415Y33986432D01*
X25315892Y33995300D01*
X25280513Y34184560D01*
X25279664Y34193725D01*
X25279664Y34386274D01*
X25280513Y34395439D01*
X25315892Y34584699D01*
X25318415Y34593567D01*
X25387969Y34773105D01*
X25392068Y34781339D01*
X25493433Y34945048D01*
X25498987Y34952401D01*
X25628694Y35094685D01*
X25635506Y35100895D01*
X25789159Y35216928D01*
X25796982Y35221772D01*
X25969346Y35307599D01*
X25977921Y35310921D01*
X26163128Y35363617D01*
X26172172Y35365307D01*
X26366195Y35383286D01*
X26370811Y35383500D01*
X26969189Y35383500D01*
X26973805Y35383286D01*
X27167825Y35365308D01*
X27176881Y35363615D01*
X27177640Y35363399D01*
X27177965Y35363412D01*
X27181422Y35362766D01*
X27181570Y35363558D01*
X27240039Y35365923D01*
X27288773Y35404974D01*
X27305000Y35459583D01*
X27305000Y35660416D01*
X27285500Y35719743D01*
X27234605Y35755933D01*
X27181550Y35756554D01*
X27181423Y35757233D01*
X27178013Y35756596D01*
X27177640Y35756600D01*
X27176880Y35756384D01*
X27167826Y35754691D01*
X26973806Y35736714D01*
X26969189Y35736500D01*
X26370811Y35736500D01*
X26366194Y35736714D01*
X26172171Y35754692D01*
X26163130Y35756381D01*
X25977921Y35809078D01*
X25969346Y35812400D01*
X25796982Y35898227D01*
X25789159Y35903071D01*
X25635506Y36019104D01*
X25628694Y36025314D01*
X25498987Y36167598D01*
X25493433Y36174951D01*
X25392068Y36338660D01*
X25387969Y36346894D01*
X25318415Y36526432D01*
X25315892Y36535300D01*
X25280513Y36724560D01*
X25279664Y36733725D01*
X25279664Y36926274D01*
X25280513Y36935439D01*
X25315892Y37124699D01*
X25318415Y37133567D01*
X25387969Y37313105D01*
X25392068Y37321339D01*
X25493433Y37485048D01*
X25498987Y37492401D01*
X25628694Y37634685D01*
X25635506Y37640895D01*
X25789159Y37756928D01*
X25796982Y37761772D01*
X25969346Y37847599D01*
X25977921Y37850921D01*
X26163128Y37903617D01*
X26172172Y37905307D01*
X26366195Y37923286D01*
X26370811Y37923500D01*
X26969189Y37923500D01*
X26973805Y37923286D01*
X27167825Y37905308D01*
X27176881Y37903615D01*
X27177640Y37903399D01*
X27177965Y37903412D01*
X27181422Y37902766D01*
X27181570Y37903558D01*
X27240039Y37905923D01*
X27288773Y37944974D01*
X27305000Y37999583D01*
X27305000Y40740416D01*
X27285500Y40799743D01*
X27234605Y40835933D01*
X27181550Y40836554D01*
X27181423Y40837233D01*
X27178013Y40836596D01*
X27177640Y40836600D01*
X27176880Y40836384D01*
X27167826Y40834691D01*
X26973806Y40816714D01*
X26969189Y40816500D01*
X26370811Y40816500D01*
X26366194Y40816714D01*
X26172171Y40834692D01*
X26163130Y40836381D01*
X25977921Y40889078D01*
X25969346Y40892400D01*
X25796982Y40978227D01*
X25789159Y40983071D01*
X25635506Y41099104D01*
X25628694Y41105314D01*
X25498987Y41247598D01*
X25493433Y41254951D01*
X25392068Y41418660D01*
X25387969Y41426894D01*
X25318415Y41606432D01*
X25315892Y41615300D01*
X25280513Y41804560D01*
X25279664Y41813725D01*
X25279664Y42006274D01*
X25280513Y42015439D01*
X25315892Y42204699D01*
X25318415Y42213567D01*
X25387969Y42393105D01*
X25392068Y42401339D01*
X25493433Y42565048D01*
X25498987Y42572401D01*
X25628694Y42714685D01*
X25635506Y42720895D01*
X25789159Y42836928D01*
X25796982Y42841772D01*
X25969346Y42927599D01*
X25977921Y42930921D01*
X26163128Y42983617D01*
X26172172Y42985307D01*
X26366195Y43003286D01*
X26370811Y43003500D01*
X26969189Y43003500D01*
X26973805Y43003286D01*
X27167825Y42985308D01*
X27176881Y42983615D01*
X27177640Y42983399D01*
X27177965Y42983412D01*
X27181422Y42982766D01*
X27181570Y42983558D01*
X27240039Y42985923D01*
X27288773Y43024974D01*
X27305000Y43079583D01*
X27305000Y43280416D01*
X27285500Y43339743D01*
X27234605Y43375933D01*
X27181550Y43376554D01*
X27181423Y43377233D01*
X27178013Y43376596D01*
X27177640Y43376600D01*
X27176880Y43376384D01*
X27167826Y43374691D01*
X26973806Y43356714D01*
X26969189Y43356500D01*
X26370811Y43356500D01*
X26366194Y43356714D01*
X26172171Y43374692D01*
X26163130Y43376381D01*
X25977921Y43429078D01*
X25969346Y43432400D01*
X25796982Y43518227D01*
X25789159Y43523071D01*
X25635506Y43639104D01*
X25628694Y43645314D01*
X25498987Y43787598D01*
X25493433Y43794951D01*
X25392068Y43958660D01*
X25387969Y43966894D01*
X25318415Y44146432D01*
X25315892Y44155300D01*
X25280513Y44344560D01*
X25279664Y44353725D01*
X25279664Y44546274D01*
X25280513Y44555439D01*
X25315892Y44744699D01*
X25318415Y44753567D01*
X25387969Y44933105D01*
X25392068Y44941339D01*
X25493433Y45105048D01*
X25498987Y45112401D01*
X25628694Y45254685D01*
X25635506Y45260895D01*
X25789159Y45376928D01*
X25796982Y45381772D01*
X25969346Y45467599D01*
X25977921Y45470921D01*
X26163128Y45523617D01*
X26172172Y45525307D01*
X26366195Y45543286D01*
X26370811Y45543500D01*
X26969189Y45543500D01*
X26973805Y45543286D01*
X27167825Y45525308D01*
X27176881Y45523615D01*
X27177640Y45523399D01*
X27177965Y45523412D01*
X27181422Y45522766D01*
X27181570Y45523558D01*
X27240039Y45525923D01*
X27288773Y45564974D01*
X27305000Y45619583D01*
X27305000Y48336500D01*
X27285500Y48395827D01*
X27205000Y48436500D01*
X25291013Y48436500D01*
X25286248Y48438066D01*
X25275000Y48460328D01*
X25275000Y50607487D01*
X25276566Y50612252D01*
X25298828Y50623500D01*
X27205000Y50623500D01*
X27264327Y50643000D01*
X27305000Y50723500D01*
X27305000Y50900416D01*
X27285500Y50959743D01*
X27234605Y50995933D01*
X27181550Y50996554D01*
X27181423Y50997233D01*
X27178013Y50996596D01*
X27177640Y50996600D01*
X27176880Y50996384D01*
X27167826Y50994691D01*
X26973806Y50976714D01*
X26969189Y50976500D01*
X26370811Y50976500D01*
X26366194Y50976714D01*
X26172171Y50994692D01*
X26163130Y50996381D01*
X25977921Y51049078D01*
X25969346Y51052400D01*
X25796982Y51138227D01*
X25789159Y51143071D01*
X25635506Y51259104D01*
X25628694Y51265314D01*
X25498987Y51407598D01*
X25493433Y51414951D01*
X25392068Y51578660D01*
X25387969Y51586894D01*
X25318415Y51766432D01*
X25315892Y51775300D01*
X25280513Y51964560D01*
X25279664Y51973725D01*
X25279664Y52166274D01*
X25280513Y52175439D01*
X25315892Y52364699D01*
X25318415Y52373567D01*
X25387969Y52553105D01*
X25392068Y52561339D01*
X25493433Y52725048D01*
X25498987Y52732401D01*
X25628694Y52874685D01*
X25635506Y52880895D01*
X25789159Y52996928D01*
X25796982Y53001772D01*
X25969346Y53087599D01*
X25977921Y53090921D01*
X26163128Y53143617D01*
X26172172Y53145307D01*
X26366195Y53163286D01*
X26370811Y53163500D01*
X26969189Y53163500D01*
X26973805Y53163286D01*
X27167825Y53145308D01*
X27176881Y53143615D01*
X27177640Y53143399D01*
X27177965Y53143412D01*
X27181422Y53142766D01*
X27181570Y53143558D01*
X27240039Y53145923D01*
X27288773Y53184974D01*
X27305000Y53239583D01*
X27305000Y53440416D01*
X27285500Y53499743D01*
X27234605Y53535933D01*
X27181550Y53536554D01*
X27181423Y53537233D01*
X27178013Y53536596D01*
X27177640Y53536600D01*
X27176880Y53536384D01*
X27167826Y53534691D01*
X26973806Y53516714D01*
X26969189Y53516500D01*
X26370811Y53516500D01*
X26366194Y53516714D01*
X26172171Y53534692D01*
X26163130Y53536381D01*
X25977921Y53589078D01*
X25969346Y53592400D01*
X25796982Y53678227D01*
X25789159Y53683071D01*
X25635506Y53799104D01*
X25628694Y53805314D01*
X25498987Y53947598D01*
X25493433Y53954951D01*
X25392068Y54118660D01*
X25387969Y54126894D01*
X25318415Y54306432D01*
X25315892Y54315300D01*
X25280513Y54504560D01*
X25279664Y54513725D01*
X25279664Y54706274D01*
X25280513Y54715439D01*
X25315892Y54904699D01*
X25318415Y54913567D01*
X25387969Y55093105D01*
X25392068Y55101339D01*
X25493433Y55265048D01*
X25498987Y55272401D01*
X25628694Y55414685D01*
X25635506Y55420895D01*
X25789159Y55536928D01*
X25796982Y55541772D01*
X25969346Y55627599D01*
X25977921Y55630921D01*
X26163128Y55683617D01*
X26172172Y55685307D01*
X26366195Y55703286D01*
X26370811Y55703500D01*
X26969189Y55703500D01*
X26973805Y55703286D01*
X27167825Y55685308D01*
X27176881Y55683615D01*
X27177640Y55683399D01*
X27177965Y55683412D01*
X27181422Y55682766D01*
X27181570Y55683558D01*
X27240039Y55685923D01*
X27288773Y55724974D01*
X27305000Y55779583D01*
X27305000Y55980416D01*
X27285500Y56039743D01*
X27234605Y56075933D01*
X27181550Y56076554D01*
X27181423Y56077233D01*
X27178013Y56076596D01*
X27177640Y56076600D01*
X27176880Y56076384D01*
X27167826Y56074691D01*
X26973806Y56056714D01*
X26969189Y56056500D01*
X26370811Y56056500D01*
X26366194Y56056714D01*
X26172171Y56074692D01*
X26163130Y56076381D01*
X25977921Y56129078D01*
X25969346Y56132400D01*
X25796982Y56218227D01*
X25789159Y56223071D01*
X25635506Y56339104D01*
X25628694Y56345314D01*
X25498987Y56487598D01*
X25493433Y56494951D01*
X25392068Y56658660D01*
X25387969Y56666894D01*
X25318415Y56846432D01*
X25315892Y56855300D01*
X25280513Y57044560D01*
X25279664Y57053725D01*
X25279664Y57246274D01*
X25280513Y57255439D01*
X25315892Y57444699D01*
X25318415Y57453567D01*
X25387969Y57633105D01*
X25392068Y57641339D01*
X25493433Y57805048D01*
X25498987Y57812401D01*
X25628694Y57954685D01*
X25635506Y57960895D01*
X25789159Y58076928D01*
X25796982Y58081772D01*
X25969346Y58167599D01*
X25977921Y58170921D01*
X26163128Y58223617D01*
X26172172Y58225307D01*
X26366195Y58243286D01*
X26370811Y58243500D01*
X26969189Y58243500D01*
X26973805Y58243286D01*
X27167825Y58225308D01*
X27176881Y58223615D01*
X27177640Y58223399D01*
X27177965Y58223412D01*
X27181422Y58222766D01*
X27181570Y58223558D01*
X27240039Y58225923D01*
X27288773Y58264974D01*
X27305000Y58319583D01*
X27305000Y58520416D01*
X27285500Y58579743D01*
X27234605Y58615933D01*
X27181550Y58616554D01*
X27181423Y58617233D01*
X27178013Y58616596D01*
X27177640Y58616600D01*
X27176880Y58616384D01*
X27167826Y58614691D01*
X26973806Y58596714D01*
X26969189Y58596500D01*
X26370811Y58596500D01*
X26366194Y58596714D01*
X26172171Y58614692D01*
X26163130Y58616381D01*
X25977921Y58669078D01*
X25969346Y58672400D01*
X25796982Y58758227D01*
X25789159Y58763071D01*
X25635506Y58879104D01*
X25628694Y58885314D01*
X25498987Y59027598D01*
X25493433Y59034951D01*
X25392068Y59198660D01*
X25387969Y59206894D01*
X25318415Y59386432D01*
X25315892Y59395300D01*
X25280513Y59584560D01*
X25279664Y59593725D01*
X25279664Y59786274D01*
X25280513Y59795439D01*
X25315892Y59984699D01*
X25318415Y59993567D01*
X25387969Y60173105D01*
X25392068Y60181339D01*
X25493433Y60345048D01*
X25498987Y60352401D01*
X25628694Y60494685D01*
X25635506Y60500895D01*
X25789159Y60616928D01*
X25796982Y60621772D01*
X25969346Y60707599D01*
X25977921Y60710921D01*
X26163128Y60763617D01*
X26172172Y60765307D01*
X26366195Y60783286D01*
X26370811Y60783500D01*
X26969189Y60783500D01*
X26973805Y60783286D01*
X27167825Y60765308D01*
X27176881Y60763615D01*
X27177640Y60763399D01*
X27177965Y60763412D01*
X27181422Y60762766D01*
X27181570Y60763558D01*
X27240039Y60765923D01*
X27288773Y60804974D01*
X27305000Y60859583D01*
X27305000Y63600416D01*
X27285500Y63659743D01*
X27234605Y63695933D01*
X27181550Y63696554D01*
X27181423Y63697233D01*
X27178013Y63696596D01*
X27177640Y63696600D01*
X27176880Y63696384D01*
X27167826Y63694691D01*
X26973806Y63676714D01*
X26969189Y63676500D01*
X26370811Y63676500D01*
X26366194Y63676714D01*
X26172171Y63694692D01*
X26163130Y63696381D01*
X25977921Y63749078D01*
X25969346Y63752400D01*
X25796982Y63838227D01*
X25789159Y63843071D01*
X25635506Y63959104D01*
X25628694Y63965314D01*
X25498987Y64107598D01*
X25493433Y64114951D01*
X25392068Y64278660D01*
X25387969Y64286894D01*
X25318415Y64466432D01*
X25315892Y64475300D01*
X25280513Y64664560D01*
X25279664Y64673725D01*
X25279664Y64866274D01*
X25280513Y64875439D01*
X25315892Y65064699D01*
X25318415Y65073567D01*
X25387969Y65253105D01*
X25392068Y65261339D01*
X25493433Y65425048D01*
X25498987Y65432401D01*
X25628694Y65574685D01*
X25635506Y65580895D01*
X25789159Y65696928D01*
X25796982Y65701772D01*
X25969346Y65787599D01*
X25977921Y65790921D01*
X26163128Y65843617D01*
X26172172Y65845307D01*
X26366195Y65863286D01*
X26370811Y65863500D01*
X26969189Y65863500D01*
X26973805Y65863286D01*
X27167825Y65845308D01*
X27176881Y65843615D01*
X27177640Y65843399D01*
X27177965Y65843412D01*
X27181422Y65842766D01*
X27181570Y65843558D01*
X27240039Y65845923D01*
X27288773Y65884974D01*
X27305000Y65939583D01*
X27305000Y66140416D01*
X27285500Y66199743D01*
X27234605Y66235933D01*
X27181550Y66236554D01*
X27181423Y66237233D01*
X27178013Y66236596D01*
X27177640Y66236600D01*
X27176880Y66236384D01*
X27167826Y66234691D01*
X26973806Y66216714D01*
X26969189Y66216500D01*
X26370811Y66216500D01*
X26366194Y66216714D01*
X26172171Y66234692D01*
X26163130Y66236381D01*
X25977921Y66289078D01*
X25969346Y66292400D01*
X25796982Y66378227D01*
X25789159Y66383071D01*
X25635506Y66499104D01*
X25628694Y66505314D01*
X25498987Y66647598D01*
X25493433Y66654951D01*
X25392068Y66818660D01*
X25387969Y66826894D01*
X25318415Y67006432D01*
X25315892Y67015300D01*
X25280513Y67204560D01*
X25279664Y67213725D01*
X25279664Y67406274D01*
X25280513Y67415439D01*
X25315892Y67604699D01*
X25318415Y67613567D01*
X25387969Y67793105D01*
X25392068Y67801339D01*
X25493433Y67965048D01*
X25498987Y67972401D01*
X25628694Y68114685D01*
X25635506Y68120895D01*
X25789159Y68236928D01*
X25796982Y68241772D01*
X25969346Y68327599D01*
X25977921Y68330921D01*
X26163128Y68383617D01*
X26172172Y68385307D01*
X26366195Y68403286D01*
X26370811Y68403500D01*
X26969189Y68403500D01*
X26973805Y68403286D01*
X27167825Y68385308D01*
X27176881Y68383615D01*
X27177640Y68383399D01*
X27177965Y68383412D01*
X27181422Y68382766D01*
X27181570Y68383558D01*
X27240039Y68385923D01*
X27288773Y68424974D01*
X27305000Y68479583D01*
X27305000Y68680416D01*
X27285500Y68739743D01*
X27234605Y68775933D01*
X27181550Y68776554D01*
X27181423Y68777233D01*
X27178013Y68776596D01*
X27177640Y68776600D01*
X27176880Y68776384D01*
X27167826Y68774691D01*
X26973806Y68756714D01*
X26969189Y68756500D01*
X26370811Y68756500D01*
X26366194Y68756714D01*
X26172171Y68774692D01*
X26163130Y68776381D01*
X25977921Y68829078D01*
X25969346Y68832400D01*
X25796982Y68918227D01*
X25789159Y68923071D01*
X25635506Y69039104D01*
X25628694Y69045314D01*
X25498987Y69187598D01*
X25493433Y69194951D01*
X25392068Y69358660D01*
X25387969Y69366894D01*
X25318415Y69546432D01*
X25315892Y69555300D01*
X25280513Y69744560D01*
X25279664Y69753725D01*
X25279664Y69946274D01*
X25280513Y69955439D01*
X25315892Y70144699D01*
X25318415Y70153567D01*
X25387969Y70333105D01*
X25392068Y70341339D01*
X25493433Y70505048D01*
X25498987Y70512401D01*
X25628694Y70654685D01*
X25635506Y70660895D01*
X25789159Y70776928D01*
X25796982Y70781772D01*
X25969346Y70867599D01*
X25977921Y70870921D01*
X26163128Y70923617D01*
X26172172Y70925307D01*
X26366195Y70943286D01*
X26370811Y70943500D01*
X26969189Y70943500D01*
X26973805Y70943286D01*
X27167825Y70925308D01*
X27176881Y70923615D01*
X27177640Y70923399D01*
X27177965Y70923412D01*
X27181422Y70922766D01*
X27181570Y70923558D01*
X27240039Y70925923D01*
X27288773Y70964974D01*
X27305000Y71019583D01*
X27305000Y71220416D01*
X27285500Y71279743D01*
X27234605Y71315933D01*
X27181550Y71316554D01*
X27181423Y71317233D01*
X27178013Y71316596D01*
X27177640Y71316600D01*
X27176880Y71316384D01*
X27167826Y71314691D01*
X26973806Y71296714D01*
X26969189Y71296500D01*
X26370811Y71296500D01*
X26366194Y71296714D01*
X26172171Y71314692D01*
X26163130Y71316381D01*
X25977921Y71369078D01*
X25969346Y71372400D01*
X25796982Y71458227D01*
X25789159Y71463071D01*
X25635506Y71579104D01*
X25628694Y71585314D01*
X25498987Y71727598D01*
X25493433Y71734951D01*
X25392068Y71898660D01*
X25387969Y71906894D01*
X25318415Y72086432D01*
X25315892Y72095300D01*
X25280513Y72284560D01*
X25279664Y72293725D01*
X25279664Y72486274D01*
X25280513Y72495439D01*
X25315892Y72684699D01*
X25318415Y72693567D01*
X25387969Y72873105D01*
X25392068Y72881339D01*
X25493433Y73045048D01*
X25498987Y73052401D01*
X25628694Y73194685D01*
X25635506Y73200895D01*
X25789159Y73316928D01*
X25796982Y73321772D01*
X25969346Y73407599D01*
X25977921Y73410921D01*
X26163128Y73463617D01*
X26172172Y73465307D01*
X26366195Y73483286D01*
X26370811Y73483500D01*
X26969189Y73483500D01*
X26973805Y73483286D01*
X27167825Y73465308D01*
X27176881Y73463615D01*
X27177640Y73463399D01*
X27177965Y73463412D01*
X27181422Y73462766D01*
X27181570Y73463558D01*
X27240039Y73465923D01*
X27288773Y73504974D01*
X27305000Y73559583D01*
X27305000Y73760416D01*
X27285500Y73819743D01*
X27234605Y73855933D01*
X27181550Y73856554D01*
X27181423Y73857233D01*
X27178013Y73856596D01*
X27177640Y73856600D01*
X27176880Y73856384D01*
X27167826Y73854691D01*
X26973806Y73836714D01*
X26969189Y73836500D01*
X26370811Y73836500D01*
X26366194Y73836714D01*
X26172171Y73854692D01*
X26163130Y73856381D01*
X25977921Y73909078D01*
X25969346Y73912400D01*
X25796982Y73998227D01*
X25789159Y74003071D01*
X25635506Y74119104D01*
X25628694Y74125314D01*
X25498987Y74267598D01*
X25493433Y74274951D01*
X25392068Y74438660D01*
X25387969Y74446894D01*
X25318415Y74626432D01*
X25315892Y74635300D01*
X25280513Y74824560D01*
X25279664Y74833725D01*
X25279664Y75026274D01*
X25280513Y75035439D01*
X25315892Y75224699D01*
X25318415Y75233567D01*
X25387969Y75413105D01*
X25392068Y75421339D01*
X25493433Y75585048D01*
X25498987Y75592401D01*
X25628694Y75734685D01*
X25635506Y75740895D01*
X25789159Y75856928D01*
X25796982Y75861772D01*
X25969346Y75947599D01*
X25977921Y75950921D01*
X26163128Y76003617D01*
X26172172Y76005307D01*
X26366195Y76023286D01*
X26370811Y76023500D01*
X26969189Y76023500D01*
X26973805Y76023286D01*
X27167825Y76005308D01*
X27176881Y76003615D01*
X27177640Y76003399D01*
X27177965Y76003412D01*
X27181422Y76002766D01*
X27181570Y76003558D01*
X27240039Y76005923D01*
X27288773Y76044974D01*
X27305000Y76099583D01*
X27305000Y78840416D01*
X27285500Y78899743D01*
X27234605Y78935933D01*
X27181550Y78936554D01*
X27181423Y78937233D01*
X27178013Y78936596D01*
X27177640Y78936600D01*
X27176880Y78936384D01*
X27167826Y78934691D01*
X26973806Y78916714D01*
X26969189Y78916500D01*
X26370811Y78916500D01*
X26366194Y78916714D01*
X26172171Y78934692D01*
X26163130Y78936381D01*
X25977921Y78989078D01*
X25969346Y78992400D01*
X25796982Y79078227D01*
X25789159Y79083071D01*
X25635506Y79199104D01*
X25628694Y79205314D01*
X25498987Y79347598D01*
X25493433Y79354951D01*
X25392068Y79518660D01*
X25387969Y79526894D01*
X25318415Y79706432D01*
X25315892Y79715300D01*
X25280513Y79904560D01*
X25279664Y79913725D01*
X25279664Y80106274D01*
X25280513Y80115439D01*
X25315892Y80304699D01*
X25318415Y80313567D01*
X25387969Y80493105D01*
X25392068Y80501339D01*
X25493433Y80665048D01*
X25498987Y80672401D01*
X25628694Y80814685D01*
X25635506Y80820895D01*
X25789159Y80936928D01*
X25796982Y80941772D01*
X25969346Y81027599D01*
X25977921Y81030921D01*
X26163128Y81083617D01*
X26172172Y81085307D01*
X26366195Y81103286D01*
X26370811Y81103500D01*
X26969189Y81103500D01*
X26973805Y81103286D01*
X27167825Y81085308D01*
X27176881Y81083615D01*
X27177640Y81083399D01*
X27177965Y81083412D01*
X27181422Y81082766D01*
X27181570Y81083558D01*
X27240039Y81085923D01*
X27288773Y81124974D01*
X27305000Y81179583D01*
X27305000Y83085000D01*
X27285500Y83144327D01*
X27205000Y83185000D01*
X2637901Y83185000D01*
X2578574Y83165500D01*
X2542384Y83114605D01*
X2548383Y83040429D01*
X2552033Y83033099D01*
X2621584Y82853567D01*
X2624107Y82844699D01*
X2659486Y82655439D01*
X2660335Y82646274D01*
X2660335Y82453725D01*
X2659486Y82444560D01*
X2624107Y82255300D01*
X2621584Y82246432D01*
X2552030Y82066894D01*
X2547931Y82058660D01*
X2446566Y81894951D01*
X2441012Y81887598D01*
X2311305Y81745314D01*
X2304493Y81739104D01*
X2150840Y81623071D01*
X2143017Y81618227D01*
X1970653Y81532400D01*
X1962078Y81529078D01*
X1776869Y81476381D01*
X1767828Y81474692D01*
X1573806Y81456714D01*
X1569189Y81456500D01*
X970811Y81456500D01*
X966194Y81456714D01*
X772173Y81474691D01*
X763115Y81476384D01*
X762360Y81476599D01*
X762036Y81476586D01*
X758573Y81477233D01*
X758425Y81476440D01*
X699961Y81474075D01*
X651227Y81435024D01*
X635000Y81380415D01*
X635000Y81179584D01*
X654500Y81120257D01*
X705395Y81084067D01*
X758447Y81083446D01*
X758574Y81082766D01*
X761990Y81083404D01*
X762360Y81083400D01*
X763114Y81083614D01*
X772174Y81085308D01*
X966195Y81103286D01*
X970811Y81103500D01*
X1569189Y81103500D01*
X1573805Y81103286D01*
X1767827Y81085308D01*
X1776871Y81083617D01*
X1962078Y81030921D01*
X1970653Y81027599D01*
X2143017Y80941772D01*
X2150840Y80936928D01*
X2304493Y80820895D01*
X2311305Y80814685D01*
X2441012Y80672401D01*
X2446566Y80665048D01*
X2547931Y80501339D01*
X2552030Y80493105D01*
X2621584Y80313567D01*
X2624107Y80304699D01*
X2659486Y80115439D01*
X2660335Y80106274D01*
X2660335Y79913725D01*
X2659486Y79904560D01*
X2624107Y79715300D01*
X2621584Y79706432D01*
X2552030Y79526894D01*
X2547931Y79518660D01*
X2446566Y79354951D01*
X2441012Y79347598D01*
X2311305Y79205314D01*
X2304493Y79199104D01*
X2150840Y79083071D01*
X2143017Y79078227D01*
X1970653Y78992400D01*
X1962078Y78989078D01*
X1776869Y78936381D01*
X1767828Y78934692D01*
X1573806Y78916714D01*
X1569189Y78916500D01*
X970811Y78916500D01*
X966194Y78916714D01*
X772173Y78934691D01*
X763115Y78936384D01*
X762360Y78936599D01*
X762036Y78936586D01*
X758573Y78937233D01*
X758425Y78936440D01*
X699961Y78934075D01*
X651227Y78895024D01*
X635000Y78840415D01*
X635000Y78639584D01*
X654500Y78580257D01*
X705395Y78544067D01*
X758447Y78543446D01*
X758574Y78542766D01*
X761990Y78543404D01*
X762360Y78543400D01*
X763114Y78543614D01*
X772174Y78545308D01*
X966195Y78563286D01*
X970811Y78563500D01*
X1569189Y78563500D01*
X1573805Y78563286D01*
X1767827Y78545308D01*
X1776871Y78543617D01*
X1962078Y78490921D01*
X1970653Y78487599D01*
X2143017Y78401772D01*
X2150840Y78396928D01*
X2304493Y78280895D01*
X2311305Y78274685D01*
X2441012Y78132401D01*
X2446566Y78125048D01*
X2547931Y77961339D01*
X2552030Y77953105D01*
X2621584Y77773567D01*
X2624107Y77764699D01*
X2659486Y77575439D01*
X2660335Y77566274D01*
X2660335Y77373725D01*
X2659486Y77364560D01*
X2624107Y77175300D01*
X2621584Y77166432D01*
X2552030Y76986894D01*
X2547931Y76978660D01*
X2446566Y76814951D01*
X2441012Y76807598D01*
X2311305Y76665314D01*
X2304493Y76659104D01*
X2150840Y76543071D01*
X2143017Y76538227D01*
X1970653Y76452400D01*
X1962078Y76449078D01*
X1776869Y76396381D01*
X1767828Y76394692D01*
X1573806Y76376714D01*
X1569189Y76376500D01*
X970811Y76376500D01*
X966194Y76376714D01*
X772173Y76394691D01*
X763115Y76396384D01*
X762360Y76396599D01*
X762036Y76396586D01*
X758573Y76397233D01*
X758425Y76396440D01*
X699961Y76394075D01*
X651227Y76355024D01*
X635000Y76300415D01*
X635000Y76099584D01*
X654500Y76040257D01*
X705395Y76004067D01*
X758447Y76003446D01*
X758574Y76002766D01*
X761990Y76003404D01*
X762360Y76003400D01*
X763114Y76003614D01*
X772174Y76005308D01*
X966195Y76023286D01*
X970811Y76023500D01*
X1569189Y76023500D01*
X1573805Y76023286D01*
X1767827Y76005308D01*
X1776871Y76003617D01*
X1962078Y75950921D01*
X1970653Y75947599D01*
X2143017Y75861772D01*
X2150840Y75856928D01*
X2304493Y75740895D01*
X2311305Y75734685D01*
X2441012Y75592401D01*
X2446566Y75585048D01*
X2547931Y75421339D01*
X2552030Y75413105D01*
X2621584Y75233567D01*
X2624107Y75224699D01*
X2659486Y75035439D01*
X2660335Y75026274D01*
X2660335Y74833725D01*
X2659486Y74824560D01*
X2624107Y74635300D01*
X2621584Y74626432D01*
X2552030Y74446894D01*
X2547931Y74438660D01*
X2446566Y74274951D01*
X2441012Y74267598D01*
X2311305Y74125314D01*
X2304493Y74119104D01*
X2150840Y74003071D01*
X2143017Y73998227D01*
X1970653Y73912400D01*
X1962078Y73909078D01*
X1776869Y73856381D01*
X1767828Y73854692D01*
X1573806Y73836714D01*
X1569189Y73836500D01*
X970811Y73836500D01*
X966194Y73836714D01*
X772173Y73854691D01*
X763115Y73856384D01*
X762360Y73856599D01*
X762036Y73856586D01*
X758573Y73857233D01*
X758425Y73856440D01*
X699961Y73854075D01*
X651227Y73815024D01*
X635000Y73760415D01*
X635000Y73559584D01*
X654500Y73500257D01*
X705395Y73464067D01*
X758447Y73463446D01*
X758574Y73462766D01*
X761990Y73463404D01*
X762360Y73463400D01*
X763114Y73463614D01*
X772174Y73465308D01*
X966195Y73483286D01*
X970811Y73483500D01*
X1569189Y73483500D01*
X1573805Y73483286D01*
X1767827Y73465308D01*
X1776871Y73463617D01*
X1962078Y73410921D01*
X1970653Y73407599D01*
X2143017Y73321772D01*
X2150840Y73316928D01*
X2304493Y73200895D01*
X2311305Y73194685D01*
X2441012Y73052401D01*
X2446566Y73045048D01*
X2547931Y72881339D01*
X2552030Y72873105D01*
X2621584Y72693567D01*
X2624107Y72684699D01*
X2659486Y72495439D01*
X2660335Y72486274D01*
X2660335Y72293725D01*
X2659486Y72284560D01*
X2624107Y72095300D01*
X2621584Y72086432D01*
X2552030Y71906894D01*
X2547931Y71898660D01*
X2446566Y71734951D01*
X2441012Y71727598D01*
X2311305Y71585314D01*
X2304493Y71579104D01*
X2150840Y71463071D01*
X2143017Y71458227D01*
X1970653Y71372400D01*
X1962078Y71369078D01*
X1776869Y71316381D01*
X1767828Y71314692D01*
X1573806Y71296714D01*
X1569189Y71296500D01*
X970811Y71296500D01*
X966194Y71296714D01*
X772173Y71314691D01*
X763115Y71316384D01*
X762360Y71316599D01*
X762036Y71316586D01*
X758573Y71317233D01*
X758425Y71316440D01*
X699961Y71314075D01*
X651227Y71275024D01*
X635000Y71220415D01*
X635000Y68479584D01*
X654500Y68420257D01*
X705395Y68384067D01*
X758447Y68383446D01*
X758574Y68382766D01*
X761990Y68383404D01*
X762360Y68383400D01*
X763114Y68383614D01*
X772174Y68385308D01*
X966195Y68403286D01*
X970811Y68403500D01*
X1569189Y68403500D01*
X1573805Y68403286D01*
X1767827Y68385308D01*
X1776871Y68383617D01*
X1962078Y68330921D01*
X1970653Y68327599D01*
X2143017Y68241772D01*
X2150840Y68236928D01*
X2304493Y68120895D01*
X2311305Y68114685D01*
X2441012Y67972401D01*
X2446566Y67965048D01*
X2547931Y67801339D01*
X2552030Y67793105D01*
X2621584Y67613567D01*
X2624107Y67604699D01*
X2659486Y67415439D01*
X2660335Y67406274D01*
X2660335Y67213725D01*
X2659486Y67204560D01*
X2624107Y67015300D01*
X2621584Y67006432D01*
X2552030Y66826894D01*
X2547931Y66818660D01*
X2446566Y66654951D01*
X2441012Y66647598D01*
X2311305Y66505314D01*
X2304493Y66499104D01*
X2150840Y66383071D01*
X2143017Y66378227D01*
X1970653Y66292400D01*
X1962078Y66289078D01*
X1776869Y66236381D01*
X1767828Y66234692D01*
X1573806Y66216714D01*
X1569189Y66216500D01*
X970811Y66216500D01*
X966194Y66216714D01*
X772173Y66234691D01*
X763115Y66236384D01*
X762360Y66236599D01*
X762036Y66236586D01*
X758573Y66237233D01*
X758425Y66236440D01*
X699961Y66234075D01*
X651227Y66195024D01*
X635000Y66140415D01*
X635000Y65939584D01*
X654500Y65880257D01*
X705395Y65844067D01*
X758447Y65843446D01*
X758574Y65842766D01*
X761990Y65843404D01*
X762360Y65843400D01*
X763114Y65843614D01*
X772174Y65845308D01*
X966195Y65863286D01*
X970811Y65863500D01*
X1569189Y65863500D01*
X1573805Y65863286D01*
X1767827Y65845308D01*
X1776871Y65843617D01*
X1962078Y65790921D01*
X1970653Y65787599D01*
X2143017Y65701772D01*
X2150840Y65696928D01*
X2304493Y65580895D01*
X2311305Y65574685D01*
X2441012Y65432401D01*
X2446566Y65425048D01*
X2547931Y65261339D01*
X2552030Y65253105D01*
X2621584Y65073567D01*
X2624107Y65064699D01*
X2659486Y64875439D01*
X2660335Y64866274D01*
X2660335Y64673725D01*
X2659486Y64664560D01*
X2624107Y64475300D01*
X2621584Y64466432D01*
X2552030Y64286894D01*
X2547931Y64278660D01*
X2446566Y64114951D01*
X2441012Y64107598D01*
X2311305Y63965314D01*
X2304493Y63959104D01*
X2150840Y63843071D01*
X2143017Y63838227D01*
X1970653Y63752400D01*
X1962078Y63749078D01*
X1776869Y63696381D01*
X1767828Y63694692D01*
X1573806Y63676714D01*
X1569189Y63676500D01*
X970811Y63676500D01*
X966194Y63676714D01*
X772173Y63694691D01*
X763115Y63696384D01*
X762360Y63696599D01*
X762036Y63696586D01*
X758573Y63697233D01*
X758425Y63696440D01*
X699961Y63694075D01*
X651227Y63655024D01*
X635000Y63600415D01*
X635000Y63399584D01*
X654500Y63340257D01*
X705395Y63304067D01*
X758447Y63303446D01*
X758574Y63302766D01*
X761990Y63303404D01*
X762360Y63303400D01*
X763114Y63303614D01*
X772174Y63305308D01*
X966195Y63323286D01*
X970811Y63323500D01*
X1569189Y63323500D01*
X1573805Y63323286D01*
X1767827Y63305308D01*
X1776871Y63303617D01*
X1962078Y63250921D01*
X1970653Y63247599D01*
X2143017Y63161772D01*
X2150840Y63156928D01*
X2304493Y63040895D01*
X2311305Y63034685D01*
X2441012Y62892401D01*
X2446566Y62885048D01*
X2547931Y62721339D01*
X2552030Y62713105D01*
X2621584Y62533567D01*
X2624107Y62524699D01*
X2659486Y62335439D01*
X2660335Y62326274D01*
X2660335Y62133725D01*
X2659486Y62124560D01*
X2624107Y61935300D01*
X2621584Y61926432D01*
X2552030Y61746894D01*
X2547931Y61738660D01*
X2446566Y61574951D01*
X2441012Y61567598D01*
X2311305Y61425314D01*
X2304493Y61419104D01*
X2150840Y61303071D01*
X2143017Y61298227D01*
X1970653Y61212400D01*
X1962078Y61209078D01*
X1776869Y61156381D01*
X1767828Y61154692D01*
X1573806Y61136714D01*
X1569189Y61136500D01*
X970811Y61136500D01*
X966194Y61136714D01*
X772173Y61154691D01*
X763115Y61156384D01*
X762360Y61156599D01*
X762036Y61156586D01*
X758573Y61157233D01*
X758425Y61156440D01*
X699961Y61154075D01*
X651227Y61115024D01*
X635000Y61060415D01*
X635000Y60859584D01*
X654500Y60800257D01*
X705395Y60764067D01*
X758447Y60763446D01*
X758574Y60762766D01*
X761990Y60763404D01*
X762360Y60763400D01*
X763114Y60763614D01*
X772174Y60765308D01*
X966195Y60783286D01*
X970811Y60783500D01*
X1569189Y60783500D01*
X1573805Y60783286D01*
X1767827Y60765308D01*
X1776871Y60763617D01*
X1962078Y60710921D01*
X1970653Y60707599D01*
X2143017Y60621772D01*
X2150840Y60616928D01*
X2304493Y60500895D01*
X2311305Y60494685D01*
X2441012Y60352401D01*
X2446566Y60345048D01*
X2547931Y60181339D01*
X2552030Y60173105D01*
X2621584Y59993567D01*
X2624107Y59984699D01*
X2659486Y59795439D01*
X2660335Y59786274D01*
X2660335Y59593725D01*
X2659486Y59584560D01*
X2624107Y59395300D01*
X2621584Y59386432D01*
X2552030Y59206894D01*
X2547931Y59198660D01*
X2446566Y59034951D01*
X2441012Y59027598D01*
X2311305Y58885314D01*
X2304493Y58879104D01*
X2150840Y58763071D01*
X2143017Y58758227D01*
X1970653Y58672400D01*
X1962078Y58669078D01*
X1776869Y58616381D01*
X1767828Y58614692D01*
X1573806Y58596714D01*
X1569189Y58596500D01*
X970811Y58596500D01*
X966194Y58596714D01*
X772173Y58614691D01*
X763115Y58616384D01*
X762360Y58616599D01*
X762036Y58616586D01*
X758573Y58617233D01*
X758425Y58616440D01*
X699961Y58614075D01*
X651227Y58575024D01*
X635000Y58520415D01*
X635000Y58319584D01*
X654500Y58260257D01*
X705395Y58224067D01*
X758447Y58223446D01*
X758574Y58222766D01*
X761990Y58223404D01*
X762360Y58223400D01*
X763114Y58223614D01*
X772174Y58225308D01*
X966195Y58243286D01*
X970811Y58243500D01*
X1569189Y58243500D01*
X1573805Y58243286D01*
X1767827Y58225308D01*
X1776871Y58223617D01*
X1962078Y58170921D01*
X1970653Y58167599D01*
X2143017Y58081772D01*
X2150840Y58076928D01*
X2304493Y57960895D01*
X2311305Y57954685D01*
X2441012Y57812401D01*
X2446566Y57805048D01*
X2547931Y57641339D01*
X2552030Y57633105D01*
X2621584Y57453567D01*
X2624107Y57444699D01*
X2659486Y57255439D01*
X2660335Y57246274D01*
X2660335Y57053725D01*
X2659486Y57044560D01*
X2624107Y56855300D01*
X2621584Y56846432D01*
X2552030Y56666894D01*
X2547931Y56658660D01*
X2446566Y56494951D01*
X2441012Y56487598D01*
X2311305Y56345314D01*
X2304493Y56339104D01*
X2150840Y56223071D01*
X2143017Y56218227D01*
X1970653Y56132400D01*
X1962078Y56129078D01*
X1776869Y56076381D01*
X1767828Y56074692D01*
X1573806Y56056714D01*
X1569189Y56056500D01*
X970811Y56056500D01*
X966194Y56056714D01*
X772173Y56074691D01*
X763115Y56076384D01*
X762360Y56076599D01*
X762036Y56076586D01*
X758573Y56077233D01*
X758425Y56076440D01*
X699961Y56074075D01*
X651227Y56035024D01*
X635000Y55980415D01*
X635000Y53263500D01*
X654500Y53204173D01*
X735000Y53163500D01*
X2648987Y53163500D01*
X2653752Y53161934D01*
X2665000Y53139672D01*
X2665000Y50992513D01*
X2663434Y50987748D01*
X2641172Y50976500D01*
X735000Y50976500D01*
X675673Y50957000D01*
X635000Y50876500D01*
X635000Y50699584D01*
X654500Y50640257D01*
X705395Y50604067D01*
X758447Y50603446D01*
X758574Y50602766D01*
X761990Y50603404D01*
X762360Y50603400D01*
X763114Y50603614D01*
X772174Y50605308D01*
X966195Y50623286D01*
X970811Y50623500D01*
X1569189Y50623500D01*
X1573805Y50623286D01*
X1767827Y50605308D01*
X1776871Y50603617D01*
X1962078Y50550921D01*
X1970653Y50547599D01*
X2143017Y50461772D01*
X2150840Y50456928D01*
X2304493Y50340895D01*
X2311305Y50334685D01*
X2441012Y50192401D01*
X2446566Y50185048D01*
X2547931Y50021339D01*
X2552030Y50013105D01*
X2621584Y49833567D01*
X2624107Y49824699D01*
X2659486Y49635439D01*
X2660335Y49626274D01*
X2660335Y49433725D01*
X2659486Y49424560D01*
X2624107Y49235300D01*
X2621584Y49226432D01*
X2552030Y49046894D01*
X2547931Y49038660D01*
X2446566Y48874951D01*
X2441012Y48867598D01*
X2311305Y48725314D01*
X2304493Y48719104D01*
X2150840Y48603071D01*
X2143017Y48598227D01*
X1970653Y48512400D01*
X1962078Y48509078D01*
X1776869Y48456381D01*
X1767828Y48454692D01*
X1573806Y48436714D01*
X1569189Y48436500D01*
X970811Y48436500D01*
X966194Y48436714D01*
X772173Y48454691D01*
X763115Y48456384D01*
X762360Y48456599D01*
X762036Y48456586D01*
X758573Y48457233D01*
X758425Y48456440D01*
X699961Y48454075D01*
X651227Y48415024D01*
X635000Y48360415D01*
X635000Y48159584D01*
X654500Y48100257D01*
X705395Y48064067D01*
X758447Y48063446D01*
X758574Y48062766D01*
X761990Y48063404D01*
X762360Y48063400D01*
X763114Y48063614D01*
X772174Y48065308D01*
X966195Y48083286D01*
X970811Y48083500D01*
X1569189Y48083500D01*
X1573805Y48083286D01*
X1767827Y48065308D01*
X1776871Y48063617D01*
X1962078Y48010921D01*
X1970653Y48007599D01*
X2143017Y47921772D01*
X2150840Y47916928D01*
X2304493Y47800895D01*
X2311305Y47794685D01*
X2441012Y47652401D01*
X2446566Y47645048D01*
X2547931Y47481339D01*
X2552030Y47473105D01*
X2621584Y47293567D01*
X2624107Y47284699D01*
X2659486Y47095439D01*
X2660335Y47086274D01*
X2660335Y46893725D01*
X2659486Y46884560D01*
X2624107Y46695300D01*
X2621584Y46686432D01*
X2552030Y46506894D01*
X2547931Y46498660D01*
X2446566Y46334951D01*
X2441012Y46327598D01*
X2311305Y46185314D01*
X2304493Y46179104D01*
X2150840Y46063071D01*
X2143017Y46058227D01*
X1970653Y45972400D01*
X1962078Y45969078D01*
X1776869Y45916381D01*
X1767828Y45914692D01*
X1573806Y45896714D01*
X1569189Y45896500D01*
X970811Y45896500D01*
X966194Y45896714D01*
X772173Y45914691D01*
X763115Y45916384D01*
X762360Y45916599D01*
X762036Y45916586D01*
X758573Y45917233D01*
X758425Y45916440D01*
X699961Y45914075D01*
X651227Y45875024D01*
X635000Y45820415D01*
X635000Y45619584D01*
X654500Y45560257D01*
X705395Y45524067D01*
X758447Y45523446D01*
X758574Y45522766D01*
X761990Y45523404D01*
X762360Y45523400D01*
X763114Y45523614D01*
X772174Y45525308D01*
X966195Y45543286D01*
X970811Y45543500D01*
X1569189Y45543500D01*
X1573805Y45543286D01*
X1767827Y45525308D01*
X1776871Y45523617D01*
X1962078Y45470921D01*
X1970653Y45467599D01*
X2143017Y45381772D01*
X2150840Y45376928D01*
X2304493Y45260895D01*
X2311305Y45254685D01*
X2441012Y45112401D01*
X2446566Y45105048D01*
X2547931Y44941339D01*
X2552030Y44933105D01*
X2621584Y44753567D01*
X2624107Y44744699D01*
X2659486Y44555439D01*
X2660335Y44546274D01*
X2660335Y44353725D01*
X2659486Y44344560D01*
X2624107Y44155300D01*
X2621584Y44146432D01*
X2552030Y43966894D01*
X2547931Y43958660D01*
X2446566Y43794951D01*
X2441012Y43787598D01*
X2311305Y43645314D01*
X2304493Y43639104D01*
X2150840Y43523071D01*
X2143017Y43518227D01*
X1970653Y43432400D01*
X1962078Y43429078D01*
X1776869Y43376381D01*
X1767828Y43374692D01*
X1573806Y43356714D01*
X1569189Y43356500D01*
X970811Y43356500D01*
X966194Y43356714D01*
X772173Y43374691D01*
X763115Y43376384D01*
X762360Y43376599D01*
X762036Y43376586D01*
X758573Y43377233D01*
X758425Y43376440D01*
X699961Y43374075D01*
X651227Y43335024D01*
X635000Y43280415D01*
X635000Y43079584D01*
X654500Y43020257D01*
X705395Y42984067D01*
X758447Y42983446D01*
X758574Y42982766D01*
X761990Y42983404D01*
X762360Y42983400D01*
X763114Y42983614D01*
X772174Y42985308D01*
X966195Y43003286D01*
X970811Y43003500D01*
X1569189Y43003500D01*
X1573805Y43003286D01*
X1767827Y42985308D01*
X1776871Y42983617D01*
X1962078Y42930921D01*
X1970653Y42927599D01*
X2143017Y42841772D01*
X2150840Y42836928D01*
X2304493Y42720895D01*
X2311305Y42714685D01*
X2441012Y42572401D01*
X2446566Y42565048D01*
X2547931Y42401339D01*
X2552030Y42393105D01*
X2621584Y42213567D01*
X2624107Y42204699D01*
X2659486Y42015439D01*
X2660335Y42006274D01*
X2660335Y41813725D01*
X2659486Y41804560D01*
X2624107Y41615300D01*
X2621584Y41606432D01*
X2552030Y41426894D01*
X2547931Y41418660D01*
X2446566Y41254951D01*
X2441012Y41247598D01*
X2311305Y41105314D01*
X2304493Y41099104D01*
X2150840Y40983071D01*
X2143017Y40978227D01*
X1970653Y40892400D01*
X1962078Y40889078D01*
X1776869Y40836381D01*
X1767828Y40834692D01*
X1573806Y40816714D01*
X1569189Y40816500D01*
X970811Y40816500D01*
X966194Y40816714D01*
X772173Y40834691D01*
X763115Y40836384D01*
X762360Y40836599D01*
X762036Y40836586D01*
X758573Y40837233D01*
X758425Y40836440D01*
X699961Y40834075D01*
X651227Y40795024D01*
X635000Y40740415D01*
X635000Y40539584D01*
X654500Y40480257D01*
X705395Y40444067D01*
X758447Y40443446D01*
X758574Y40442766D01*
X761990Y40443404D01*
X762360Y40443400D01*
X763114Y40443614D01*
X772174Y40445308D01*
X966195Y40463286D01*
X970811Y40463500D01*
X1569189Y40463500D01*
X1573805Y40463286D01*
X1767827Y40445308D01*
X1776871Y40443617D01*
X1962078Y40390921D01*
X1970653Y40387599D01*
X2143017Y40301772D01*
X2150840Y40296928D01*
X2304493Y40180895D01*
X2311305Y40174685D01*
X2441012Y40032401D01*
X2446566Y40025048D01*
X2547931Y39861339D01*
X2552030Y39853105D01*
X2621584Y39673567D01*
X2624107Y39664699D01*
X2659486Y39475439D01*
X2660335Y39466274D01*
X2660335Y39273725D01*
X2659486Y39264560D01*
X2624107Y39075300D01*
X2621584Y39066432D01*
X2552030Y38886894D01*
X2547931Y38878660D01*
X2446566Y38714951D01*
X2441012Y38707598D01*
X2311305Y38565314D01*
X2304493Y38559104D01*
X2150840Y38443071D01*
X2143017Y38438227D01*
X1970653Y38352400D01*
X1962078Y38349078D01*
X1776869Y38296381D01*
X1767828Y38294692D01*
X1573806Y38276714D01*
X1569189Y38276500D01*
X970811Y38276500D01*
X966194Y38276714D01*
X772173Y38294691D01*
X763115Y38296384D01*
X762360Y38296599D01*
X762036Y38296586D01*
X758573Y38297233D01*
X758425Y38296440D01*
X699961Y38294075D01*
X651227Y38255024D01*
X635000Y38200415D01*
X635000Y37999584D01*
X654500Y37940257D01*
X705395Y37904067D01*
X758447Y37903446D01*
X758574Y37902766D01*
X761990Y37903404D01*
X762360Y37903400D01*
X763114Y37903614D01*
X772174Y37905308D01*
X966195Y37923286D01*
X970811Y37923500D01*
X1569189Y37923500D01*
X1573805Y37923286D01*
X1767827Y37905308D01*
X1776871Y37903617D01*
X1962078Y37850921D01*
X1970653Y37847599D01*
X2143017Y37761772D01*
X2150840Y37756928D01*
X2304493Y37640895D01*
X2311305Y37634685D01*
X2441012Y37492401D01*
X2446566Y37485048D01*
X2547931Y37321339D01*
X2552030Y37313105D01*
X2621584Y37133567D01*
X2624107Y37124699D01*
X2659486Y36935439D01*
X2660335Y36926274D01*
X2660335Y36733725D01*
X2659486Y36724560D01*
X2624107Y36535300D01*
X2621584Y36526432D01*
X2552030Y36346894D01*
X2547931Y36338660D01*
X2446566Y36174951D01*
X2441012Y36167598D01*
X2311305Y36025314D01*
X2304493Y36019104D01*
X2150840Y35903071D01*
X2143017Y35898227D01*
X1970653Y35812400D01*
X1962078Y35809078D01*
X1776869Y35756381D01*
X1767828Y35754692D01*
X1573806Y35736714D01*
X1569189Y35736500D01*
X970811Y35736500D01*
X966194Y35736714D01*
X772173Y35754691D01*
X763115Y35756384D01*
X762360Y35756599D01*
X762036Y35756586D01*
X758573Y35757233D01*
X758425Y35756440D01*
X699961Y35754075D01*
X651227Y35715024D01*
X635000Y35660415D01*
X635000Y35459584D01*
X654500Y35400257D01*
X705395Y35364067D01*
X758447Y35363446D01*
X758574Y35362766D01*
X761990Y35363404D01*
X762360Y35363400D01*
X763114Y35363614D01*
X772174Y35365308D01*
X966195Y35383286D01*
X970811Y35383500D01*
X1569189Y35383500D01*
X1573805Y35383286D01*
X1767827Y35365308D01*
X1776871Y35363617D01*
X1962078Y35310921D01*
X1970653Y35307599D01*
X2143017Y35221772D01*
X2150840Y35216928D01*
X2304493Y35100895D01*
X2311305Y35094685D01*
X2441012Y34952401D01*
X2446566Y34945048D01*
X2547931Y34781339D01*
X2552030Y34773105D01*
X2621584Y34593567D01*
X2624107Y34584699D01*
X2659486Y34395439D01*
X2660335Y34386274D01*
X2660335Y34193725D01*
X2659486Y34184560D01*
X2624107Y33995300D01*
X2621584Y33986432D01*
X2552030Y33806894D01*
X2547931Y33798660D01*
X2446566Y33634951D01*
X2441012Y33627598D01*
X2311305Y33485314D01*
X2304493Y33479104D01*
X2150840Y33363071D01*
X2143017Y33358227D01*
X1970653Y33272400D01*
X1962078Y33269078D01*
X1776869Y33216381D01*
X1767828Y33214692D01*
X1573806Y33196714D01*
X1569189Y33196500D01*
X970811Y33196500D01*
X966194Y33196714D01*
X772173Y33214691D01*
X763115Y33216384D01*
X762360Y33216599D01*
X762036Y33216586D01*
X758573Y33217233D01*
X758425Y33216440D01*
X699961Y33214075D01*
X651227Y33175024D01*
X635000Y33120415D01*
X635000Y32919584D01*
X654500Y32860257D01*
X705395Y32824067D01*
X758447Y32823446D01*
X758574Y32822766D01*
X761990Y32823404D01*
X762360Y32823400D01*
X763114Y32823614D01*
X772174Y32825308D01*
X966195Y32843286D01*
X970811Y32843500D01*
X1569189Y32843500D01*
X1573805Y32843286D01*
X1767827Y32825308D01*
X1776871Y32823617D01*
X1962078Y32770921D01*
X1970653Y32767599D01*
X2143017Y32681772D01*
X2150840Y32676928D01*
X2304493Y32560895D01*
X2311305Y32554685D01*
X2441012Y32412401D01*
X2446566Y32405048D01*
X2547931Y32241339D01*
X2552030Y32233105D01*
X2621584Y32053567D01*
X2624107Y32044699D01*
X2659486Y31855439D01*
X2660335Y31846274D01*
X2660335Y31653725D01*
X2659486Y31644560D01*
X2624107Y31455300D01*
X2621584Y31446432D01*
X2552030Y31266894D01*
X2547931Y31258660D01*
X2446566Y31094951D01*
X2441012Y31087598D01*
X2311305Y30945314D01*
X2304493Y30939104D01*
X2150840Y30823071D01*
X2143017Y30818227D01*
X1970653Y30732400D01*
X1962078Y30729078D01*
X1776869Y30676381D01*
X1767828Y30674692D01*
X1573806Y30656714D01*
X1569189Y30656500D01*
X970811Y30656500D01*
X966194Y30656714D01*
X772173Y30674691D01*
X763115Y30676384D01*
X762360Y30676599D01*
X762036Y30676586D01*
X758573Y30677233D01*
X758425Y30676440D01*
X699961Y30674075D01*
X651227Y30635024D01*
X635000Y30580415D01*
X635000Y30379584D01*
X654500Y30320257D01*
X705395Y30284067D01*
X758447Y30283446D01*
X758574Y30282766D01*
X761990Y30283404D01*
X762360Y30283400D01*
X763114Y30283614D01*
X772174Y30285308D01*
X966195Y30303286D01*
X970811Y30303500D01*
X1569189Y30303500D01*
X1573805Y30303286D01*
X1767827Y30285308D01*
X1776871Y30283617D01*
X1962078Y30230921D01*
X1970653Y30227599D01*
X2143017Y30141772D01*
X2150840Y30136928D01*
X2304493Y30020895D01*
X2311305Y30014685D01*
X2441012Y29872401D01*
X2446566Y29865048D01*
X2547931Y29701339D01*
X2552030Y29693105D01*
X2621584Y29513567D01*
X2624107Y29504699D01*
X2659486Y29315439D01*
X2660335Y29306274D01*
X2660335Y29113725D01*
X2659486Y29104560D01*
X2624107Y28915300D01*
X2621584Y28906432D01*
X2552030Y28726894D01*
X2547931Y28718660D01*
X2446566Y28554951D01*
X2441012Y28547598D01*
X2311305Y28405314D01*
X2304493Y28399104D01*
X2150840Y28283071D01*
X2143017Y28278227D01*
X1970653Y28192400D01*
X1962078Y28189078D01*
X1776869Y28136381D01*
X1767828Y28134692D01*
X1573806Y28116714D01*
X1569189Y28116500D01*
X970811Y28116500D01*
X966194Y28116714D01*
X772173Y28134691D01*
X763115Y28136384D01*
X762360Y28136599D01*
X762036Y28136586D01*
X758573Y28137233D01*
X758425Y28136440D01*
X699961Y28134075D01*
X651227Y28095024D01*
X635000Y28040415D01*
X635000Y27839584D01*
X654500Y27780257D01*
X705395Y27744067D01*
X758447Y27743446D01*
X758574Y27742766D01*
X761990Y27743404D01*
X762360Y27743400D01*
X763114Y27743614D01*
X772174Y27745308D01*
X966195Y27763286D01*
X970811Y27763500D01*
X1569189Y27763500D01*
X1573805Y27763286D01*
X1767827Y27745308D01*
X1776871Y27743617D01*
X1962078Y27690921D01*
X1970653Y27687599D01*
X2143017Y27601772D01*
X2150840Y27596928D01*
X2304493Y27480895D01*
X2311305Y27474685D01*
X2441012Y27332401D01*
X2446566Y27325048D01*
X2547931Y27161339D01*
X2552030Y27153105D01*
X2621584Y26973567D01*
X2624107Y26964699D01*
X2659486Y26775439D01*
X2660335Y26766274D01*
X2660335Y26573725D01*
X2659486Y26564560D01*
X2624107Y26375300D01*
X2621584Y26366432D01*
X2552030Y26186894D01*
X2547931Y26178660D01*
X2446566Y26014951D01*
X2441012Y26007598D01*
X2311305Y25865314D01*
X2304493Y25859104D01*
X2150840Y25743071D01*
X2143017Y25738227D01*
X1970653Y25652400D01*
X1962078Y25649078D01*
X1776869Y25596381D01*
X1767828Y25594692D01*
X1573806Y25576714D01*
X1569189Y25576500D01*
X970811Y25576500D01*
X966194Y25576714D01*
X772173Y25594691D01*
X763115Y25596384D01*
X762360Y25596599D01*
X762036Y25596586D01*
X758573Y25597233D01*
X758425Y25596440D01*
X699961Y25594075D01*
X651227Y25555024D01*
X635000Y25500415D01*
X635000Y25299584D01*
X654500Y25240257D01*
X705395Y25204067D01*
X758447Y25203446D01*
X758574Y25202766D01*
X761990Y25203404D01*
X762360Y25203400D01*
X763114Y25203614D01*
X772174Y25205308D01*
X966195Y25223286D01*
X970811Y25223500D01*
X1569189Y25223500D01*
X1573805Y25223286D01*
X1767827Y25205308D01*
X1776871Y25203617D01*
X1962078Y25150921D01*
X1970653Y25147599D01*
X2143017Y25061772D01*
X2150840Y25056928D01*
X2304493Y24940895D01*
X2311305Y24934685D01*
X2441012Y24792401D01*
X2446566Y24785048D01*
X2547931Y24621339D01*
X2552030Y24613105D01*
X2621584Y24433567D01*
X2624107Y24424699D01*
X2659486Y24235439D01*
X2660335Y24226274D01*
X2660335Y24033725D01*
X2659486Y24024560D01*
X2624107Y23835300D01*
X2621584Y23826432D01*
X2552030Y23646894D01*
X2547931Y23638660D01*
X2446566Y23474951D01*
X2441012Y23467598D01*
X2311305Y23325314D01*
X2304493Y23319104D01*
X2150840Y23203071D01*
X2143017Y23198227D01*
X1970653Y23112400D01*
X1962078Y23109078D01*
X1776869Y23056381D01*
X1767828Y23054692D01*
X1573806Y23036714D01*
X1569189Y23036500D01*
X970811Y23036500D01*
X966194Y23036714D01*
X772173Y23054691D01*
X763115Y23056384D01*
X762360Y23056599D01*
X762036Y23056586D01*
X758573Y23057233D01*
X758425Y23056440D01*
X699961Y23054075D01*
X651227Y23015024D01*
X635000Y22960415D01*
X635000Y22783500D01*
X654500Y22724173D01*
X735000Y22683500D01*
X2648987Y22683500D01*
X2653752Y22681934D01*
X2665000Y22659672D01*
X2665000Y20512513D01*
X2663434Y20507748D01*
X2641172Y20496500D01*
X735000Y20496500D01*
X675673Y20477000D01*
X635000Y20396500D01*
X635000Y20219584D01*
X654500Y20160257D01*
X705395Y20124067D01*
X758447Y20123446D01*
X758574Y20122766D01*
X761990Y20123404D01*
X762360Y20123400D01*
X763114Y20123614D01*
X772174Y20125308D01*
X966195Y20143286D01*
X970811Y20143500D01*
X1569189Y20143500D01*
X1573805Y20143286D01*
X1767827Y20125308D01*
X1776871Y20123617D01*
X1962078Y20070921D01*
X1970653Y20067599D01*
X2143017Y19981772D01*
X2150840Y19976928D01*
X2304493Y19860895D01*
X2311305Y19854685D01*
X2441012Y19712401D01*
X2446566Y19705048D01*
X2547931Y19541339D01*
X2552030Y19533105D01*
X2621584Y19353567D01*
X2624107Y19344699D01*
X2659486Y19155439D01*
X2660335Y19146274D01*
X2660335Y18953725D01*
X2659486Y18944560D01*
X2624107Y18755300D01*
X2621584Y18746432D01*
X2552030Y18566894D01*
X2547931Y18558660D01*
X2446566Y18394951D01*
X2441012Y18387598D01*
X2311305Y18245314D01*
X2304493Y18239104D01*
X2150840Y18123071D01*
X2143017Y18118227D01*
X1970653Y18032400D01*
X1962078Y18029078D01*
X1776869Y17976381D01*
X1767828Y17974692D01*
X1573806Y17956714D01*
X1569189Y17956500D01*
X970811Y17956500D01*
X966194Y17956714D01*
X772173Y17974691D01*
X763115Y17976384D01*
X762360Y17976599D01*
X762036Y17976586D01*
X758573Y17977233D01*
X758425Y17976440D01*
X699961Y17974075D01*
X651227Y17935024D01*
X635000Y17880415D01*
X635000Y17679584D01*
X654500Y17620257D01*
X705395Y17584067D01*
X758447Y17583446D01*
X758574Y17582766D01*
X761990Y17583404D01*
X762360Y17583400D01*
X763114Y17583614D01*
X772174Y17585308D01*
X966195Y17603286D01*
X970811Y17603500D01*
X1569189Y17603500D01*
X1573805Y17603286D01*
X1767827Y17585308D01*
X1776871Y17583617D01*
X1962078Y17530921D01*
X1970653Y17527599D01*
X2143017Y17441772D01*
X2150840Y17436928D01*
X2304493Y17320895D01*
X2311305Y17314685D01*
X2441012Y17172401D01*
X2446566Y17165048D01*
X2547931Y17001339D01*
X2552030Y16993105D01*
X2621584Y16813567D01*
X2624107Y16804699D01*
X2659486Y16615439D01*
X2660335Y16606274D01*
X2660335Y16413725D01*
X2659486Y16404560D01*
X2624107Y16215300D01*
X2621584Y16206432D01*
X2552030Y16026894D01*
X2547931Y16018660D01*
X2446566Y15854951D01*
X2441012Y15847598D01*
X2311305Y15705314D01*
X2304493Y15699104D01*
X2150840Y15583071D01*
X2143017Y15578227D01*
X1970653Y15492400D01*
X1962078Y15489078D01*
X1776869Y15436381D01*
X1767828Y15434692D01*
X1573806Y15416714D01*
X1569189Y15416500D01*
X970811Y15416500D01*
X966194Y15416714D01*
X772173Y15434691D01*
X763115Y15436384D01*
X762360Y15436599D01*
X762036Y15436586D01*
X758573Y15437233D01*
X758425Y15436440D01*
X699961Y15434075D01*
X651227Y15395024D01*
X635000Y15340415D01*
X635000Y15139584D01*
X654500Y15080257D01*
X705395Y15044067D01*
X758447Y15043446D01*
X758574Y15042766D01*
X761990Y15043404D01*
X762360Y15043400D01*
X763114Y15043614D01*
X772174Y15045308D01*
X966195Y15063286D01*
X970811Y15063500D01*
X1569189Y15063500D01*
X1573805Y15063286D01*
X1767827Y15045308D01*
X1776871Y15043617D01*
X1962078Y14990921D01*
X1970653Y14987599D01*
X2143017Y14901772D01*
X2150840Y14896928D01*
X2304493Y14780895D01*
X2311305Y14774685D01*
X2441012Y14632401D01*
X2446566Y14625048D01*
X2547931Y14461339D01*
X2552030Y14453105D01*
X2621584Y14273567D01*
X2624107Y14264699D01*
X2659486Y14075439D01*
X2660335Y14066274D01*
X2660335Y13873725D01*
X2659486Y13864560D01*
X2624107Y13675300D01*
X2621584Y13666432D01*
X2552030Y13486894D01*
X2547931Y13478660D01*
X2446566Y13314951D01*
X2441012Y13307598D01*
X2311305Y13165314D01*
X2304493Y13159104D01*
X2150840Y13043071D01*
X2143017Y13038227D01*
X1970653Y12952400D01*
X1962078Y12949078D01*
X1776869Y12896381D01*
X1767828Y12894692D01*
X1573806Y12876714D01*
X1569189Y12876500D01*
X970811Y12876500D01*
X966194Y12876714D01*
X772173Y12894691D01*
X763115Y12896384D01*
X762360Y12896599D01*
X762036Y12896586D01*
X758573Y12897233D01*
X758425Y12896440D01*
X699961Y12894075D01*
X651227Y12855024D01*
X635000Y12800415D01*
X635000Y12599584D01*
X654500Y12540257D01*
X705395Y12504067D01*
X758447Y12503446D01*
X758574Y12502766D01*
X761990Y12503404D01*
X762360Y12503400D01*
X763114Y12503614D01*
X772174Y12505308D01*
X966195Y12523286D01*
X970811Y12523500D01*
X1569189Y12523500D01*
X1573805Y12523286D01*
X1767827Y12505308D01*
X1776871Y12503617D01*
X1962078Y12450921D01*
X1970653Y12447599D01*
X2143017Y12361772D01*
X2150840Y12356928D01*
X2304493Y12240895D01*
X2311305Y12234685D01*
X2441012Y12092401D01*
X2446566Y12085048D01*
X2547931Y11921339D01*
X2552030Y11913105D01*
X2621584Y11733567D01*
X2624107Y11724699D01*
X2659486Y11535439D01*
X2660335Y11526274D01*
X2660335Y11333725D01*
X2659486Y11324560D01*
X2624107Y11135300D01*
X2621584Y11126432D01*
X2552030Y10946894D01*
X2547931Y10938660D01*
X2446566Y10774951D01*
X2441012Y10767598D01*
X2311305Y10625314D01*
X2304493Y10619104D01*
X2150840Y10503071D01*
X2143017Y10498227D01*
X1970653Y10412400D01*
X1962078Y10409078D01*
X1776869Y10356381D01*
X1767828Y10354692D01*
X1573806Y10336714D01*
X1569189Y10336500D01*
X970811Y10336500D01*
X966194Y10336714D01*
X772173Y10354691D01*
X763115Y10356384D01*
X762360Y10356599D01*
X762036Y10356586D01*
X758573Y10357233D01*
X758425Y10356440D01*
X699961Y10354075D01*
X651227Y10315024D01*
X635000Y10260415D01*
X635000Y10059584D01*
X654500Y10000257D01*
X705395Y9964067D01*
X758447Y9963446D01*
X758574Y9962766D01*
X761990Y9963404D01*
X762360Y9963400D01*
X763114Y9963614D01*
X772174Y9965308D01*
X966195Y9983286D01*
X970811Y9983500D01*
X1569189Y9983500D01*
X1573805Y9983286D01*
X1767827Y9965308D01*
X1776871Y9963617D01*
X1962078Y9910921D01*
X1970653Y9907599D01*
X2143017Y9821772D01*
X2150840Y9816928D01*
X2304493Y9700895D01*
X2311305Y9694685D01*
X2441012Y9552401D01*
X2446566Y9545048D01*
X2547931Y9381339D01*
X2552030Y9373105D01*
X2621584Y9193567D01*
X2624107Y9184699D01*
X2659486Y8995439D01*
X2660335Y8986274D01*
X2660335Y8793725D01*
X2659486Y8784560D01*
X2624107Y8595300D01*
X2621584Y8586432D01*
X2552030Y8406894D01*
X2547931Y8398660D01*
X2446566Y8234951D01*
X2441012Y8227598D01*
X2311305Y8085314D01*
X2304493Y8079104D01*
X2150840Y7963071D01*
X2143017Y7958227D01*
X1970653Y7872400D01*
X1962078Y7869078D01*
X1776869Y7816381D01*
X1767828Y7814692D01*
X1573806Y7796714D01*
X1569189Y7796500D01*
X970811Y7796500D01*
X966194Y7796714D01*
X772173Y7814691D01*
X763115Y7816384D01*
X762360Y7816599D01*
X762036Y7816586D01*
X758573Y7817233D01*
X758425Y7816440D01*
X699961Y7814075D01*
X651227Y7775024D01*
X635000Y7720415D01*
X635000Y7519584D01*
X654500Y7460257D01*
X705395Y7424067D01*
X758447Y7423446D01*
X758574Y7422766D01*
X761990Y7423404D01*
X762360Y7423400D01*
X763114Y7423614D01*
X772174Y7425308D01*
X966195Y7443286D01*
X970811Y7443500D01*
X1569189Y7443500D01*
X1573805Y7443286D01*
X1767827Y7425308D01*
X1776871Y7423617D01*
X1962078Y7370921D01*
X1970653Y7367599D01*
X2143017Y7281772D01*
X2150840Y7276928D01*
X2304493Y7160895D01*
X2311305Y7154685D01*
X2441012Y7012401D01*
X2446566Y7005048D01*
X2547931Y6841339D01*
X2552030Y6833105D01*
X2621584Y6653567D01*
X2624107Y6644699D01*
X2659486Y6455439D01*
X2660335Y6446274D01*
X2660335Y6253725D01*
X2659486Y6244560D01*
X2624107Y6055300D01*
X2621584Y6046432D01*
X2552030Y5866894D01*
X2547931Y5858660D01*
X2446566Y5694951D01*
X2441012Y5687598D01*
X2311305Y5545314D01*
X2304493Y5539104D01*
X2150840Y5423071D01*
X2143017Y5418227D01*
X1970653Y5332400D01*
X1962078Y5329078D01*
X1776869Y5276381D01*
X1767828Y5274692D01*
X1573806Y5256714D01*
X1569189Y5256500D01*
X970811Y5256500D01*
X966194Y5256714D01*
X772173Y5274691D01*
X763115Y5276384D01*
X762360Y5276599D01*
X762036Y5276586D01*
X758573Y5277233D01*
X758425Y5276440D01*
X699961Y5274075D01*
X651227Y5235024D01*
X635000Y5180415D01*
X635000Y4979584D01*
X654500Y4920257D01*
X705395Y4884067D01*
X758447Y4883446D01*
X758574Y4882766D01*
X761990Y4883404D01*
X762360Y4883400D01*
X763114Y4883614D01*
X772174Y4885308D01*
X966195Y4903286D01*
X970811Y4903500D01*
X1569189Y4903500D01*
X1573805Y4903286D01*
X1767827Y4885308D01*
X1776871Y4883617D01*
X1962078Y4830921D01*
X1970653Y4827599D01*
X2143017Y4741772D01*
X2150840Y4736928D01*
X2304493Y4620895D01*
X2311305Y4614685D01*
X2441012Y4472401D01*
X2446566Y4465048D01*
X2547931Y4301339D01*
X2552030Y4293105D01*
X2621584Y4113567D01*
X2624107Y4104699D01*
X2659486Y3915439D01*
X2660335Y3906274D01*
X2660335Y3713725D01*
X2659486Y3704560D01*
X2624107Y3515300D01*
X2621584Y3506432D01*
X2552030Y3326894D01*
X2547931Y3318660D01*
X2446566Y3154951D01*
X2441012Y3147598D01*
X2311305Y3005314D01*
X2304493Y2999104D01*
X2150840Y2883071D01*
X2143017Y2878227D01*
X1970653Y2792400D01*
X1962078Y2789078D01*
X1776869Y2736381D01*
X1767828Y2734692D01*
X1573806Y2716714D01*
X1569189Y2716500D01*
X970811Y2716500D01*
X966194Y2716714D01*
X772173Y2734691D01*
X763115Y2736384D01*
X762360Y2736599D01*
X762036Y2736586D01*
X758573Y2737233D01*
X758425Y2736440D01*
X699961Y2734075D01*
X651227Y2695024D01*
X635000Y2640415D01*
X635000Y2463500D01*
X654500Y2404173D01*
X735000Y2363500D01*
X2648987Y2363500D01*
X2653752Y2361934D01*
X2665000Y2339672D01*
X2665000Y735000D01*
X2684500Y675673D01*
X2765000Y635000D01*
X10280505Y635000D01*
X10280505Y30946855D01*
X10151141Y30963885D01*
X10138599Y30967246D01*
X10018052Y31017179D01*
X10006801Y31023675D01*
X9903296Y31103097D01*
X9894097Y31112296D01*
X9814675Y31215801D01*
X9808179Y31227052D01*
X9758246Y31347599D01*
X9754885Y31360141D01*
X9737127Y31495034D01*
X9710050Y31551309D01*
X9651034Y31581127D01*
X9516141Y31598885D01*
X9503599Y31602246D01*
X9383052Y31652179D01*
X9371801Y31658675D01*
X9268296Y31738097D01*
X9259097Y31747296D01*
X9179675Y31850801D01*
X9173179Y31862052D01*
X9123246Y31982599D01*
X9119885Y31995141D01*
X9102855Y32124505D01*
X9102855Y32137495D01*
X9119885Y32266858D01*
X9123246Y32279400D01*
X9173179Y32399948D01*
X9179675Y32411199D01*
X9259097Y32514703D01*
X9268296Y32523902D01*
X9371801Y32603324D01*
X9383052Y32609820D01*
X9503595Y32659751D01*
X9516148Y32663115D01*
X9518505Y32663425D01*
X9518505Y40090855D01*
X9389141Y40107885D01*
X9376599Y40111246D01*
X9256052Y40161179D01*
X9244801Y40167675D01*
X9141296Y40247097D01*
X9132097Y40256296D01*
X9052675Y40359801D01*
X9046179Y40371052D01*
X8996246Y40491599D01*
X8992885Y40504141D01*
X8975855Y40633505D01*
X8975855Y40646495D01*
X8992885Y40775858D01*
X8996246Y40788400D01*
X9046179Y40908948D01*
X9052675Y40920199D01*
X9132097Y41023703D01*
X9141296Y41032902D01*
X9244801Y41112324D01*
X9256052Y41118820D01*
X9376595Y41168751D01*
X9389148Y41172115D01*
X9518498Y41189144D01*
X9518505Y41189144D01*
X9518505Y42630855D01*
X9389141Y42647885D01*
X9376599Y42651246D01*
X9256052Y42701179D01*
X9244801Y42707675D01*
X9141296Y42787097D01*
X9132097Y42796296D01*
X9052675Y42899801D01*
X9046179Y42911052D01*
X8996246Y43031599D01*
X8992885Y43044141D01*
X8975855Y43173505D01*
X8975855Y43186495D01*
X8992885Y43315858D01*
X8996246Y43328400D01*
X9046179Y43448948D01*
X9052675Y43460199D01*
X9132097Y43563703D01*
X9141296Y43572902D01*
X9244801Y43652324D01*
X9256052Y43658820D01*
X9376595Y43708751D01*
X9389148Y43712115D01*
X9518498Y43729144D01*
X9518505Y43729144D01*
X9518505Y46440855D01*
X9389141Y46457885D01*
X9376599Y46461246D01*
X9256052Y46511179D01*
X9244801Y46517675D01*
X9141296Y46597097D01*
X9132097Y46606296D01*
X9052675Y46709801D01*
X9046179Y46721052D01*
X8996246Y46841599D01*
X8992885Y46854141D01*
X8975855Y46983505D01*
X8975855Y46996495D01*
X8992885Y47125858D01*
X8996246Y47138400D01*
X9046179Y47258948D01*
X9052675Y47270199D01*
X9132097Y47373703D01*
X9141296Y47382902D01*
X9244801Y47462324D01*
X9256052Y47468820D01*
X9376595Y47518751D01*
X9389148Y47522115D01*
X9518498Y47539144D01*
X9518505Y47539144D01*
X9518505Y50250855D01*
X9389141Y50267885D01*
X9376599Y50271246D01*
X9256052Y50321179D01*
X9244801Y50327675D01*
X9141296Y50407097D01*
X9132097Y50416296D01*
X9052675Y50519801D01*
X9046179Y50531052D01*
X8996246Y50651599D01*
X8992885Y50664141D01*
X8975855Y50793505D01*
X8975855Y50806495D01*
X8992885Y50935858D01*
X8996245Y50948398D01*
X9046179Y51068948D01*
X9052675Y51080199D01*
X9132097Y51183703D01*
X9141296Y51192902D01*
X9244801Y51272324D01*
X9256052Y51278820D01*
X9376595Y51328751D01*
X9389142Y51332113D01*
X9417559Y51335854D01*
X9473834Y51362931D01*
X9503071Y51418114D01*
X9493868Y51479883D01*
X9449815Y51524146D01*
X9417560Y51534143D01*
X9389147Y51537884D01*
X9376599Y51541246D01*
X9256052Y51591179D01*
X9244801Y51597675D01*
X9141296Y51677097D01*
X9132097Y51686296D01*
X9052675Y51789801D01*
X9046179Y51801052D01*
X8996246Y51921599D01*
X8992885Y51934141D01*
X8975855Y52063505D01*
X8975855Y52076495D01*
X8992885Y52205858D01*
X8996246Y52218400D01*
X9046179Y52338948D01*
X9052675Y52350199D01*
X9132097Y52453703D01*
X9141296Y52462902D01*
X9244801Y52542324D01*
X9256052Y52548820D01*
X9376595Y52598751D01*
X9389148Y52602115D01*
X9518498Y52619144D01*
X9531502Y52619144D01*
X9660851Y52602115D01*
X9673404Y52598751D01*
X9793948Y52548820D01*
X9805199Y52542324D01*
X9908703Y52462902D01*
X9917902Y52453703D01*
X9997324Y52350199D01*
X10003820Y52338948D01*
X10053751Y52218404D01*
X10057115Y52205851D01*
X10074144Y52076502D01*
X10074144Y52063498D01*
X10057115Y51934148D01*
X10053751Y51921595D01*
X10003820Y51801052D01*
X9997324Y51789801D01*
X9917902Y51686296D01*
X9908703Y51677097D01*
X9805199Y51597675D01*
X9793948Y51591179D01*
X9673400Y51541246D01*
X9660852Y51537884D01*
X9632439Y51534143D01*
X9576165Y51507066D01*
X9546928Y51451883D01*
X9556131Y51390115D01*
X9600185Y51345852D01*
X9632440Y51335854D01*
X9660857Y51332113D01*
X9673404Y51328751D01*
X9793948Y51278820D01*
X9805199Y51272324D01*
X9908703Y51192902D01*
X9917902Y51183703D01*
X9997324Y51080199D01*
X10003820Y51068948D01*
X10053751Y50948404D01*
X10057115Y50935851D01*
X10074144Y50806502D01*
X10074144Y50793498D01*
X10057115Y50664148D01*
X10053751Y50651595D01*
X10003820Y50531052D01*
X9997324Y50519801D01*
X9917902Y50416296D01*
X9908703Y50407097D01*
X9805199Y50327675D01*
X9793948Y50321179D01*
X9673400Y50271246D01*
X9660858Y50267885D01*
X9531495Y50250855D01*
X9518505Y50250855D01*
X9518505Y47539144D01*
X9531502Y47539144D01*
X9660851Y47522115D01*
X9673404Y47518751D01*
X9793948Y47468820D01*
X9805199Y47462324D01*
X9908703Y47382902D01*
X9917902Y47373703D01*
X9997324Y47270199D01*
X10003820Y47258948D01*
X10053751Y47138404D01*
X10057115Y47125851D01*
X10074144Y46996502D01*
X10074144Y46983498D01*
X10057115Y46854148D01*
X10053751Y46841595D01*
X10003820Y46721052D01*
X9997324Y46709801D01*
X9917902Y46606296D01*
X9908703Y46597097D01*
X9805199Y46517675D01*
X9793948Y46511179D01*
X9673400Y46461246D01*
X9660858Y46457885D01*
X9531495Y46440855D01*
X9518505Y46440855D01*
X9518505Y43729144D01*
X9531502Y43729144D01*
X9660851Y43712115D01*
X9673404Y43708751D01*
X9793948Y43658820D01*
X9805199Y43652324D01*
X9908703Y43572902D01*
X9917902Y43563703D01*
X9997324Y43460199D01*
X10003820Y43448948D01*
X10053751Y43328404D01*
X10057115Y43315851D01*
X10074144Y43186502D01*
X10074144Y43173498D01*
X10057115Y43044148D01*
X10053751Y43031595D01*
X10003820Y42911052D01*
X9997324Y42899801D01*
X9917902Y42796296D01*
X9908703Y42787097D01*
X9805199Y42707675D01*
X9793948Y42701179D01*
X9673400Y42651246D01*
X9660858Y42647885D01*
X9531495Y42630855D01*
X9518505Y42630855D01*
X9518505Y41189144D01*
X9531502Y41189144D01*
X9660851Y41172115D01*
X9673404Y41168751D01*
X9793948Y41118820D01*
X9805199Y41112324D01*
X9908703Y41032902D01*
X9917902Y41023703D01*
X9997324Y40920199D01*
X10003820Y40908948D01*
X10053751Y40788404D01*
X10057115Y40775851D01*
X10074144Y40646502D01*
X10074144Y40633498D01*
X10057115Y40504148D01*
X10053751Y40491595D01*
X10003820Y40371052D01*
X9997324Y40359801D01*
X9917902Y40256296D01*
X9908703Y40247097D01*
X9805199Y40167675D01*
X9793948Y40161179D01*
X9673400Y40111246D01*
X9660858Y40107885D01*
X9531495Y40090855D01*
X9518505Y40090855D01*
X9518505Y32663425D01*
X9645498Y32680144D01*
X9658502Y32680144D01*
X9787851Y32663115D01*
X9800404Y32659751D01*
X9920948Y32609820D01*
X9932199Y32603324D01*
X10035703Y32523902D01*
X10044902Y32514703D01*
X10124324Y32411199D01*
X10130820Y32399948D01*
X10180751Y32279404D01*
X10184115Y32266851D01*
X10201873Y32131964D01*
X10228950Y32075690D01*
X10287964Y32045873D01*
X10422851Y32028115D01*
X10435404Y32024751D01*
X10555948Y31974820D01*
X10567199Y31968324D01*
X10670703Y31888902D01*
X10679902Y31879703D01*
X10759324Y31776199D01*
X10765820Y31764948D01*
X10815751Y31644404D01*
X10819115Y31631851D01*
X10836144Y31502502D01*
X10836144Y31489498D01*
X10819115Y31360148D01*
X10815751Y31347595D01*
X10765820Y31227052D01*
X10759324Y31215801D01*
X10679902Y31112296D01*
X10670703Y31103097D01*
X10567199Y31023675D01*
X10555948Y31017179D01*
X10435400Y30967246D01*
X10422858Y30963885D01*
X10293495Y30946855D01*
X10280505Y30946855D01*
X10280505Y635000D01*
X17646505Y635000D01*
X17646505Y31581855D01*
X17517141Y31598885D01*
X17504599Y31602246D01*
X17384052Y31652179D01*
X17372801Y31658675D01*
X17269296Y31738097D01*
X17260097Y31747296D01*
X17180675Y31850801D01*
X17174179Y31862052D01*
X17124246Y31982599D01*
X17120885Y31995141D01*
X17103855Y32124505D01*
X17103855Y32137495D01*
X17120885Y32266858D01*
X17124246Y32279400D01*
X17174179Y32399948D01*
X17180675Y32411199D01*
X17260097Y32514703D01*
X17269296Y32523902D01*
X17372801Y32603324D01*
X17384052Y32609820D01*
X17504595Y32659751D01*
X17517148Y32663115D01*
X17652035Y32680873D01*
X17708309Y32707950D01*
X17738127Y32766965D01*
X17755885Y32901858D01*
X17759246Y32914400D01*
X17809179Y33034948D01*
X17815675Y33046199D01*
X17895097Y33149703D01*
X17904296Y33158902D01*
X18007801Y33238324D01*
X18019052Y33244820D01*
X18139595Y33294751D01*
X18152148Y33298115D01*
X18281498Y33315144D01*
X18294502Y33315144D01*
X18408505Y33300135D01*
X18408505Y44535855D01*
X18279141Y44552885D01*
X18266599Y44556246D01*
X18146052Y44606179D01*
X18134801Y44612675D01*
X18031296Y44692097D01*
X18022097Y44701296D01*
X17942675Y44804801D01*
X17936179Y44816052D01*
X17886246Y44936599D01*
X17882885Y44949141D01*
X17865855Y45078505D01*
X17865855Y45091495D01*
X17882885Y45220858D01*
X17886246Y45233400D01*
X17936179Y45353948D01*
X17942675Y45365199D01*
X18022097Y45468703D01*
X18031296Y45477902D01*
X18134801Y45557324D01*
X18146052Y45563820D01*
X18266595Y45613751D01*
X18279148Y45617115D01*
X18408498Y45634144D01*
X18408505Y45634144D01*
X18408505Y48345855D01*
X18279141Y48362885D01*
X18266599Y48366246D01*
X18146052Y48416179D01*
X18134801Y48422675D01*
X18031296Y48502097D01*
X18022097Y48511296D01*
X17942675Y48614801D01*
X17936179Y48626052D01*
X17886246Y48746599D01*
X17882885Y48759141D01*
X17865855Y48888505D01*
X17865855Y48901495D01*
X17882885Y49030858D01*
X17886246Y49043400D01*
X17936179Y49163948D01*
X17942675Y49175199D01*
X18022097Y49278703D01*
X18031296Y49287902D01*
X18134801Y49367324D01*
X18146052Y49373820D01*
X18266595Y49423751D01*
X18279148Y49427115D01*
X18408498Y49444144D01*
X18421502Y49444144D01*
X18550851Y49427115D01*
X18563404Y49423751D01*
X18683948Y49373820D01*
X18695199Y49367324D01*
X18798703Y49287902D01*
X18807902Y49278703D01*
X18887324Y49175199D01*
X18893820Y49163948D01*
X18943751Y49043404D01*
X18947115Y49030851D01*
X18964144Y48901502D01*
X18964144Y48888498D01*
X18947115Y48759148D01*
X18943751Y48746595D01*
X18893820Y48626052D01*
X18887324Y48614801D01*
X18807902Y48511296D01*
X18798703Y48502097D01*
X18695199Y48422675D01*
X18683948Y48416179D01*
X18563400Y48366246D01*
X18550858Y48362885D01*
X18421495Y48345855D01*
X18408505Y48345855D01*
X18408505Y45634144D01*
X18421502Y45634144D01*
X18550851Y45617115D01*
X18563404Y45613751D01*
X18683948Y45563820D01*
X18695199Y45557324D01*
X18798703Y45477902D01*
X18807902Y45468703D01*
X18887324Y45365199D01*
X18893820Y45353948D01*
X18943751Y45233404D01*
X18947115Y45220851D01*
X18964144Y45091502D01*
X18964144Y45078498D01*
X18947115Y44949148D01*
X18943751Y44936595D01*
X18893820Y44816052D01*
X18887324Y44804801D01*
X18807902Y44701296D01*
X18798703Y44692097D01*
X18695199Y44612675D01*
X18683948Y44606179D01*
X18563400Y44556246D01*
X18550858Y44552885D01*
X18421495Y44535855D01*
X18408505Y44535855D01*
X18408505Y33300135D01*
X18423851Y33298115D01*
X18436404Y33294751D01*
X18556948Y33244820D01*
X18568199Y33238324D01*
X18671703Y33158902D01*
X18680902Y33149703D01*
X18760324Y33046199D01*
X18766820Y33034948D01*
X18816751Y32914404D01*
X18820115Y32901851D01*
X18837144Y32772502D01*
X18837144Y32759498D01*
X18820115Y32630148D01*
X18816751Y32617595D01*
X18766820Y32497052D01*
X18760324Y32485801D01*
X18680902Y32382296D01*
X18671703Y32373097D01*
X18568199Y32293675D01*
X18556948Y32287179D01*
X18436400Y32237246D01*
X18423858Y32233885D01*
X18288965Y32216127D01*
X18232690Y32189050D01*
X18202873Y32130035D01*
X18185115Y31995148D01*
X18181751Y31982595D01*
X18131820Y31862052D01*
X18125324Y31850801D01*
X18045902Y31747296D01*
X18036703Y31738097D01*
X17933199Y31658675D01*
X17921948Y31652179D01*
X17801400Y31602246D01*
X17788858Y31598885D01*
X17659495Y31581855D01*
X17646505Y31581855D01*
X17646505Y635000D01*
X27205000Y635000D01*
X27264327Y654500D01*
G37*
G04 --- BOARD END --- *
%TF.MD5,ded744bfbe3db594105685ce5c635963*%
M02*
