G04 --- HEADER BEGIN --- *
%TF.GenerationSoftware,LibrePCB,LibrePCB,0.1.5*%
%TF.CreationDate,2020-12-27T00:53:52*%
%TF.ProjectId,bob_ddr_sdram_4m16b - default,91b37e6c-9424-4871-8535-6cfacb37efd9,v1*%
%TF.Part,Single*%
%FSLAX66Y66*%
%MOMM*%
G01*
G74*
G04 --- HEADER END --- *
G04 --- APERTURE LIST BEGIN --- *
%ADD10O,2.19X1.587*%
%ADD11R,2.19X1.587*%
%ADD12C,0.5*%
%ADD13C,0.01*%
%ADD14C,0.33*%
G04 --- APERTURE LIST END --- *
G04 --- BOARD BEGIN --- *
D10*
X26670000Y34290000D03*
X26670000Y44450000D03*
D11*
X26670000Y49530000D03*
D10*
X26670000Y39370000D03*
X26670000Y31750000D03*
X26670000Y21590000D03*
X26670000Y26670000D03*
X26670000Y41910000D03*
X26670000Y46990000D03*
X26670000Y29210000D03*
X26670000Y24130000D03*
X26670000Y36830000D03*
X26670000Y57150000D03*
X26670000Y62230000D03*
D11*
X26670000Y82550000D03*
D10*
X26670000Y77470000D03*
X26670000Y74930000D03*
X26670000Y54610000D03*
X26670000Y52070000D03*
X26670000Y72390000D03*
X26670000Y59690000D03*
X26670000Y69850000D03*
X26670000Y80010000D03*
X26670000Y67310000D03*
X26670000Y64770000D03*
X1270000Y36830000D03*
X1270000Y26670000D03*
D11*
X1270000Y21590000D03*
D10*
X1270000Y31750000D03*
X1270000Y39370000D03*
X1270000Y49530000D03*
X1270000Y44450000D03*
X1270000Y29210000D03*
X1270000Y24130000D03*
X1270000Y41910000D03*
X1270000Y46990000D03*
X1270000Y34290000D03*
X26670000Y1270000D03*
X26670000Y8890000D03*
X26670000Y6350000D03*
D11*
X26670000Y19050000D03*
D10*
X26670000Y16510000D03*
X26670000Y3810000D03*
X26670000Y13970000D03*
X26670000Y11430000D03*
X1270000Y19050000D03*
X1270000Y11430000D03*
X1270000Y13970000D03*
D11*
X1270000Y1270000D03*
D10*
X1270000Y3810000D03*
X1270000Y16510000D03*
X1270000Y6350000D03*
X1270000Y8890000D03*
X1270000Y77470000D03*
X1270000Y72390000D03*
D11*
X1270000Y52070000D03*
D10*
X1270000Y57150000D03*
X1270000Y59690000D03*
X1270000Y80010000D03*
X1270000Y82550000D03*
X1270000Y62230000D03*
X1270000Y74930000D03*
X1270000Y64770000D03*
X1270000Y54610000D03*
X1270000Y67310000D03*
X1270000Y69850000D03*
D12*
X17653000Y32131000D03*
X9525000Y43180000D03*
X18415000Y41275000D03*
X9525000Y48895000D03*
X9525000Y45085000D03*
X18415000Y45085000D03*
D13*
X20955000Y63500000D03*
D12*
X18415000Y52070000D03*
X18415000Y50800000D03*
X9525000Y40640000D03*
X9525000Y52070000D03*
X9525000Y50800000D03*
X9652000Y32131000D03*
X18288000Y32766000D03*
X18415000Y48895000D03*
X18415000Y31115000D03*
X9525000Y46990000D03*
X18415000Y43180000D03*
X18415000Y46990000D03*
X10287000Y31496000D03*
D14*
X17653000Y32131000D02*
X17653000Y12827000D01*
X17653000Y12827000D02*
X26670000Y3810000D01*
X9652000Y12192000D02*
X1270000Y3810000D01*
X9652000Y32131000D02*
X9652000Y12192000D01*
X18288000Y32766000D02*
X18288000Y14732000D01*
X18288000Y14732000D02*
X26670000Y6350000D01*
X10287000Y10287000D02*
X1270000Y1270000D01*
X10287000Y31496000D02*
X10287000Y10287000D01*
G04 --- BOARD END --- *
%TF.MD5,6cbece4ab476ff9975b7189b210bc948*%
M02*
